<mxfile host="app.diagrams.net" agent="Mozilla/5.0 (Macintosh; Intel Mac OS X 10.15; rv:130.0) Gecko/20100101 Firefox/130.0" version="24.7.14">
  <diagram name="Page-1" id="-yKeMOIvGBvSuCTgDQ5f">
    <mxGraphModel grid="1" page="1" gridSize="10" guides="1" tooltips="1" connect="1" arrows="1" fold="1" pageScale="1" pageWidth="850" pageHeight="1100" math="0" shadow="0">
      <root>
        <mxCell id="0" />
        <mxCell id="1" parent="0" />
        <mxCell id="2" value="gCat Conceptual Architecture" style="whiteSpace=wrap;strokeWidth=2;verticalAlign=top;fontStyle=1;fontSize=16;" vertex="1" parent="1">
          <mxGeometry x="30" y="40" width="737" height="452" as="geometry" />
        </mxCell>
        <mxCell id="4" value="" style="whiteSpace=wrap;strokeWidth=2;fillColor=#dae8fc;strokeColor=#6c8ebf;" vertex="1" parent="2">
          <mxGeometry x="10" y="110" width="161" height="248" as="geometry" />
        </mxCell>
        <mxCell id="3" value="User Authentication" style="whiteSpace=wrap;strokeWidth=2;fontSize=11;" vertex="1" parent="2">
          <mxGeometry x="24.5" y="129" width="132" height="20" as="geometry" />
        </mxCell>
        <mxCell id="Ld5f4X40Y6e1_s1Iz7q8-12" value="&lt;b&gt;Interface&lt;/b&gt;" style="text;strokeColor=none;align=center;fillColor=none;html=1;verticalAlign=middle;whiteSpace=wrap;rounded=0;" vertex="1" parent="2">
          <mxGeometry x="20" y="70" width="130" height="30" as="geometry" />
        </mxCell>
        <mxCell id="Ld5f4X40Y6e1_s1Iz7q8-14" value="" style="whiteSpace=wrap;strokeWidth=2;fillColor=#dae8fc;strokeColor=#6c8ebf;" vertex="1" parent="2">
          <mxGeometry x="190" y="110" width="161" height="248" as="geometry" />
        </mxCell>
        <mxCell id="Ld5f4X40Y6e1_s1Iz7q8-15" value="Import Metadata" style="whiteSpace=wrap;strokeWidth=2;fontSize=11;" vertex="1" parent="2">
          <mxGeometry x="24.5" y="159" width="132" height="20" as="geometry" />
        </mxCell>
        <mxCell id="Ld5f4X40Y6e1_s1Iz7q8-17" value="Harvest other catalogues" style="whiteSpace=wrap;strokeWidth=2;fontSize=11;" vertex="1" parent="2">
          <mxGeometry x="24.5" y="189" width="132" height="20" as="geometry" />
        </mxCell>
        <mxCell id="Ld5f4X40Y6e1_s1Iz7q8-18" value="Map search" style="whiteSpace=wrap;strokeWidth=2;fontSize=11;" vertex="1" parent="2">
          <mxGeometry x="24.5" y="223" width="132" height="20" as="geometry" />
        </mxCell>
        <mxCell id="Ld5f4X40Y6e1_s1Iz7q8-19" value="" style="shape=image;imageAspect=0;aspect=fixed;verticalLabelPosition=bottom;verticalAlign=top;image=data:image/png,iVBORw0KGgoAAAANSUhEUgAABI0AAAHGCAYAAAD5b3s8AAAAAXNSR0IArs4c6QAAAARnQU1BAACxjwv8YQUAAAAJcEhZcwAALiIAAC4iAari3ZIAAAAhdEVYdENyZWF0aW9uIFRpbWUAMjAxNTowODoyNSAxMDoyOTozMEjVQkgAAHXNSURBVHhe7f1/cJXnfef/vwFJIAFCB2hsWYlWFmtYao+FgTDRGNcmXtzIjT+MjT8xmSbD1PyjOBnTZZMpGY+Ja4+n7MTLRpnW0T+kwySd4iw4o9qfkJra2Gs8ZKiQRcYuX/DqWMWVD25BOgiQEEeC73nfuoTFLyHp3Pc513Xdz8cMy3Ud1k2CpSPdL71/TLl06eIlAQAAAAAAAEYhNAIAAAAAYEKmmN8Bv001vwMAAAAAAACXERoBAAAAAADgGoRGAAAAAAAAuAahEQAAAAAAAK5BaAQAAAAAAIBrEBoBAAAAAADgGoRGAAAAAAAAuAahEQAAAAAAAK4x5dKli5fMGQDgrCnmd9fwJQgAALjI1e+9gIkhNAIALxAaAQAAVxHAALaiPQ0AAAAAAADXIDQCAAAAAADANWhPAwAvUNYNAAAAIFxUGgEAAAAAAOAahEYAAAAAAAC4BqERAAAAAAAArkFoBAAAAAAAgGtMuZRlzhPE/GwAsAeDsAEAAACEi0ojAFY52/odSb+7RgZP7jOvAAAAAAAKgUojANYYSDbLmY+azE2k9Javy8w7fyhSPNe8ghuj0ggAAABAuAiNAFhBK4vSh54yt89NmTZbZtU+KdNrG80ruD5CIwAAAADhIjQCUHiZbjn1ztfk0tAZ88K1SsqXy6w//G8ydc5S8wquRGgEAAAAIFyERgAKrvfAt+VCb6u5jW1mzQYprX2SlrVrEBoBAAAACBehEYCC6vvgOenresXcxmfa9Ftl9l1bpGj+KvMKCI0AAAAAhI3QCEDBZFItcvr3m81t4sqqnpCyRU9TdRQgNAIAAAAQLkIjAAVx8XSb9Pxz45hzjMZDB2WX3/mMFFeuMa/EFaERAAAAgHARGgHIv0y3pH/3ZzLYd8y8kDvW8xMaAQAAAAjXVPM7AOTNuQ//KtTASPV/9rr0vLc2WN0PAAAAAMgdlUZwjrY1XcycNrdhQ71Hs6+dNbcbm1Z6q0wtqzK3YdNmVsuU0gXmhqhdOP5L6T3yorlFI5h1dNdz5hYXVBoBAAAACBehEawxUiGSOXUo+H3oTMflIGi869hzpfNximcuCs5BwFR6y+WgiXApdxr4df/uT80tWkVlC6X87h/J1DlLzSu+IzQCAAAAEC5CI+SVhgZDfZ/IYO9HcrH/MxnqPyGZc0dzHoacTxpGTC0ql+K5dZcDJVa/j0OmO2gfGxo4YV6InoaAs2qflOm1jeYVnxEaAQAAAAgXoREio5VD2jY22NsRhEP5qhYqFA2Tikpvk2mzF0jxvGUESVc52/odOX/qbXPLrxnzHpBZdS96PiSb0AgAAABAuAiNEIpL/R2S+Y8Dkuk+LJkzx0IfcuwqDZJKEvdIUfl/luI/qI9te1v/0ZfkXOd2cyuMadNvlTn3/E+P29UIjQAAAACEi9AIk6JtZplTB4OQaCB9yKn2skLS4KKkYrmU3LJSiuffF4v18Fpxlj70lLkV3uw7NnrarkZoBAAAACBchEYYn0y3XEj9JgiJLqRb8zqXxmdaiTT9C/fJ9Fu/6mUFjFagdb/3TetCRT/b1QiNAAAAAISL0Ag3pNVEAyfekoF/f5d2szy4ogqpco151W3pd9dY+7Hj33Y1QiMAAAAA4SI0whU0KDr/yT/IwMl3qCYqIN36NWP+/U4HSH0fPCd9Xa+Ym53073n2wqelpPpb5hWXERoBAAAACBehEQiKLDcSIE3/4sPObGS7cPyX0nvkRXOz38yaDVK66Pvm5ipCIwAAAADhIjSKKZ01c/74r+V86v8jKHKItrDNqPwTmVH9qLWb2DSE7PnnRueGo7s/54jQCAAAAEC4CI3ixAyzPt/1j3Kht9W8CFeVlC+XGVV/bFdrVfZjLP27P3N2BpbOOZqzfJu1gdzYCI0AAAAAhIvQKAa0qqjvaLOcP/kOq/E9pO1rZV/6hhXVR+fafyD9n71ubm7Sv8/El5sdHJBNaAQAAAAgXIRGHtO5MlQVxUvpLV8v2OyjgWSznPmoydzcV774GccGZBMaAQAAAAgXoZFvMt0y8MmvpO/4K8wqirF8t67pHKPu3/2puflj9h0bZXpto7nZjtAIAAAAQLgIjXyR6Zb+5M+l75Nf0YKGy3Rw9szaDdGGR9mPvVPvfC2UjzttDbPt41ert2Yu+bG52YzQCAAAAEC4CI0cNzKvyPU5MojWyNyj0tonQ98O1nvg26G0QOp/x3n3/1bOffhX1n08B8HRnT+0fLMaoREAAACAcBEaOYqwCJMRdnjUf/QlOde53dxyU7Hs5cuzmHQeV++RF4OzLXSzWsVX/tbi4IjQCAAAAEC4CI1ck+mWvqM/lb6uV8wLwMSFER5lUi1y+vebzS03M2s2SOmi75vbMP2/3/vhi1a1q9kdHBEaAQAAAAgXoZErmFmECEx25pFWunW/981QPhZ1aHd5/S/M7Uo6YLvnnxutC47K7/6RhSv5CY0AAAAAhIvQyAHaqnPm2E8JixAZDY9mLfpzKa5cY14ZW/rdNTLYd8zcJm9kjtFYlTsaHJ1+/79btQ1Q/3snvtxsWXBEaAQAAAAgXIRGFhs8uU/OHvlJKA/nwHho1U/ZHU9eni10PefafxDaLK3Rc4zGlOmW9O/+zKrPBfuCI0IjAAAAAOEiNLKQtv6c+/AlOX/qbfMKkF+6LaxsUaNMKV1gXhkW5oDq680xGhPB0U0QGgEAAAAIF6GRZXQbFXOLYIPLw7JNsBPmfKGx5hiNKdMtZw8/Y1Wgak9wRGgEAAAAIFyERpagFQ22Gpl3dPboT0KZK6Qhy9x7//6aKqaJCLNFLgx2BEeERgAAAADCRWhUaKzQR8zMuXvruAduj4Xg6GqERgAAAADCNdX8jgLQ6qKe99YSGCE2yqqeCCUwUjOX/DiYvWQLbdvT9j1t4wMAAAAAH1BpVAhUFyGGisoWSsV9LeYWHiqORlBpBAAAACBchEZ5plUIvb//S2YXIVbCmGM0FhuDo3n3/1akeK55JR8IjQAAAACEi/a0PNLNaN2/+1MCI8RO+Z3PRBYYKRtb1dK/+7OgqhAAAAAAXEVolA/ZB8feA9+Wc53bzQtAfIQ5x2gstgVHGg4THAEAAABwGe1pEdNh16fb/yKoPADiJqo5RmOxrVWtpHy5lNf/wtyiRHsaAAAAgHBRaRQhbUdLH3qKwAixpHN95izfZm75Y1vF0YXe1iDIAgAAAADXEBpFIdMtZ1u/QzsaYq301ocjnWM0Fg2OtMLHFlr51PfBc+YGAAAAAG4gNAqZbkfreW+tnD/1tnkFiKe+rlcKGpSUL28K2uNsoX8fF47/0twAAAAAwH7MNApRJtUivR++SDsaMMqMeQ/IrLoX87x+3sh0B8OobdpYOOfurRENBmemEQAAAIBwERqFZCDZLGc+ajI3AKNpxY/ONypIu1qmW0698zVrwlyd9ZT4crNMnbPUvBIWQiMAAAAA4SI0CoFt25oAG0UXltxc0Db6z43WBEfTpt8qiXt3h1x9RWgEAAAAIFyERrmwsPUFsJkGR7MXPi0l1d8yr+TP4Ml9wTZDW2j1VcV9LeYWBkIjAAAAAOFiEPZkERgBE6aVPr1HXizIQOii+aukfPEz5lZ4+t7BKn4AAAAANiM0mgRtddEZKQRGwORocFSIwEQrnGbWbDC3wtO2VjaqAQAAALAVodEE2TYbBXCVBiaFCI5KF31fSm/5urkVngZo+r4CAAAAALYhNJoAAiMgXJeDo0y3eSU/Zt75w2CmkC30fSXffwcAAAAAcDMMwh4nbSHRigAA4QuGQn/lb0PeJnYTlq3iLylfLuX1vzC3yWAQNgAAAIBwUWk0DgRGQLR0PpgOls9rtU3xXEl8udlcCu9Cb6v0ffCcuQEAAABA4VFpdBMERoWlFShTi8qlaPYCmVI8S6Zmf00rX2T+NPvnc+omXJ2iq9dHXOzrkqH+E8E50304+F0f3lEYhag4su1zfM7dW6W4co255ROVSgAAAACuRGg0BgKj/NHWnGmlt8rU0lukeN4ymTazWqaULjB/WgCZbhk8fTgIlQZ7/68MnumQzLmjzLPKg0IERzpXSecr2WDKtNky996/L8DHP6ERAAAAgCsRGt0AgVF0NBQonp39NbdOiub8oUyds9T8if0u9XfIYPoDyZx6PwiSqEqKRt6Do0x30B6nbXI2yH2+0WQQGgEAAAC4EqHRdWRSLXL695vNDbmaNv1WmT7/fimed48Uz78vrxUk+aDtbplTh4L2NkKk8OQ7ONJAsPu9b1pTTTazZoOULvq+ueUDoREAAACAKxEaXYW1+uGYMe8BKfnCvVL8B/WFbTPLt0y3ZE6+Kxc+2y/nT77Dx1GOguDovhZzi55tgXHFspelaP4qc4saoREAAACAKxEajUJgNHk6h2XG/Pul5JaVXlYTTZZ+TJ3/5B9k4OQ7MjQwPHAbE1N6y9dl5pIfm1v0dINZX9cr5lZYWqWXuHd3nj6fCI0AAAAAXInQyCAwmpyRiqKSyocJim5C29gG/u03VCBNQr6Do/S7a6yZb5S//+2ERgAAAACuRGikMt3S895aKkHGSasfyqqfkJLK1fFqPQuRDlq/8O/vyflTb5tXcDNlVU9I2V3PmVu0bAuR87OGn9AIAAAAwJUIjSzbmmQzrXiY/sWH8zhjxX86fLm/4xfSf+I3VB+NQ/niZ6Sk+lvmFq2BZLOc+ajJ3ApL2z/n3f/biKv5CI0AAAAAXCn2odHZ1u9Q7TEGfVgt+9I3ZEb1o1QVRUyrj84lt1PxdhP5qboZZtP7g7aCzlr+M3OLAqERAAAAgCvFOjQ61/4D6f/sdXPDaNqCNqPyT6S09klmFeWZzj7q++jnrO+/AQ0yE19ulqlzlppXIpTpllPvfC0mbWqERgAAAACuFNvQSKs6eo+8aG4YoWHRzNoNeWsBwo0RHt1Yftq1htm0hj/a/92ERgAAAACuFMvQyKaHQFsQFtmL8Oj6isoWSsVX/jYvwVE82tQIjQAAAABcKXahEav1rzQys4g2NPsRHl0rb+voY9GmRmgEAAAA4ErxCo3YlHaF4IH7zh8SFjlGK+XOHv0JA7ON2XdslOm1jeYWHZsqFLUyMHHv7pA/dwmNAAAAAFwpVqERm9KGlZQvl1l/+N/yM0gYkek/+pL0ffIrquayKpa9LEXzV5lbdGx6DymrekLK7nrO3MJAaAQAAADgSrEJjfQB+1zndnOLJ21Fm73waeYWeeRSf4ec+/Cl2Ieh+RqMrX/f3e9905qgbu5X/i7E8JfQCAAAAMCVYhEa6SyY9KGnzC2egqqERU/TiuYp/Rg/88HzsW5ZCwZj39dibtEZSDbLmY+azK2wwv3fTGgEAAAA4EpTze/e0sqA0+1/YW7xo7NPtHUnaGMhMPKWtmbpjBsNB+NKZ5X1fRBmu9b16fwkDWtsoP+bNcQCAAAAgCh4Hxqdbt0U25kvGiBokJCPWS+wQPHcIBzUkFDDwjjq63olGFgdtVmL/9ycCu9s8ufBkH8AAAAACJvXoZFWHcRxU5rOd6G6KL7iXnXU++GLkYco+nes2wdtoKH4uQ//ytwAAAAAIDzehkY640WrDuJmxrwHgoHAVBfFnKk6mnP31iBEjBMNUXpbN5pbdGbe+UNr/m77P3tdLp5uMzcAAAAACIefoVGmO5ZzjGbfsVFmLf8Z1UW4rLhyTRAilpQvN6/Ew4Xe1uhn/Wgw96VvmEvhnf2X/2VOAAAAABAOL0Ojs4efidUcI6120NXbOqAXuEbxXCmv/4XMrNlgXogHnfUTdfVN6aLvWzM/SoOyfMxzAgAAABAf3oVGWl1w/tTb5uY/3eKklSRT5yw1rwDXpwFHnNrVgja13/+luUVn1iKLhmIf/Yk5AQAAAEDuvAqNdL1+sEkoJnQQb8V9LbSjYdy0XS3x5WZrVsZHTQfh9x99ydyioX+ntrT/DQ2cYAU/AAAAgNB4FRqdaX8uNm1p5YufkZlLfmxuwPhpVVrFV/42GJoeB+c6t0feplZ2x5PmVHis4AcAAAAQFm9CI/3pus708N3IOv2S6m+ZV4BJKJ4bDE23ZW181KIeEq3bCm2pNtLgvD9GFZcAAAAAouNFaBSXtjQNjILWItbpIyRaraZVa77Lxza12UueM6fC6/vkV1QbAQAAAMiZF6FRHNrSdAbN3Hv/noHXCJ1WrcUhOIq6bWtK6QJrKrf0/bDv6E/NDQAAAAAmx/nQSFdM+96WpoGRzqDRh1IgChoczf3K33m9WU2DlLOHow3HyhY1mlPh9XW9ElRhAgAAAMBkuR0aZbql98MXzcVPI4ERG9IQNa1i0/ZHn4Oj86felsGT+8wtfDZVG6m+o2xSAwAAADB5TodG2n7hc1sagRHyLQ7B0ZkPnjenaNhUbdT/2etUGwEAAACYNGdDI12hre0XviIwQqH4HhwNDZyIdCg21UYAAAAAfOFsaBT1Cu1CIjBCofkeHEU9FHv6Fx82p8Kj2ggAAADAZDkZGl04/ktvh18TGMEWPgdHUW8XK5q/SkrKl5tb4Z0//mtzAgAAAIDxcy80ynTLueR2c/ELgRFs43NwFPV2sbI7njSnwuv75FeRVlYBAAAA8JNzoVF/8ufBTBLf6EP5nOXbCIxgHQ2OZi982tz8cu7Dl8wpfFptNG36reZWWFpZpe+dAAAAADARboVGme7hn5h7RgOjoJqjdIF5BbBLSfW3pHzxM+bmj6hX8M+s3WBOhefjeycAAACAaDkVGp378K+8XLE/Z8n/CKo5AJtpcFRW9YS5+aPvo+gqcEoqH7amtU/fO3UeHAAAAACMlzOhkc4e0S1AvtHqDW1jAVxQdtdzVq2TD4MO1Y+s2qh4rpTeas8mtbHnwV0K8RcAAAAAHzgTGvUdbTYnf+jDt1ZvAC6ZeecPg6HtPomy2qh0wbfNqfB0HlyU7XgAAAAA/OJEaORjlZGu45655MfmBjikeG6w5c+njWpRVhvprLIZ8x4wt8I738lsIwAAAADj40Ro5FuVkW5UKl/eZG6Ag4rnBrO4fBJltdH0qq+ZU+Hp8G8N4gEAAADgZqwPjXysMppzz/9ktT6cp7O4Zt+x0dzcF2W1UXHlGqsqs/o7fmFOAAAAAHBj1odGvlUZ6UM2m9Lgi+m1jVa1XuUqytYtmwZi95/4jTkBAAAAwI1ZHRr5VmWkD9f6kA34ZFbdi0HLpQ+ibN2yaSA26/cBAAAAjMeUS1nmPEHRr1U+1/4Db0IjfahO3LubtjR4Sdu60oeeMje36VbDqIbUp99dI4N9x8ytsHQYf3l9VG1qU8zvAICJSUsyZY65qqyQWnMEAGCy7A2NMt1y6p2vBT8R90HFspeDGTCAr/qPviTnOrebm9vmf/W9SALegWSznPnIniH48/7o9WC7W/gIjQBgJADqSKWDc8fBHgl+bNDVI0f096zDx3vMKU+qE1JnjiIJWVw1fFq44nYZ/mpQIQsqs78ROAEADGtDI58eQMuqnpCyu54zN8BfNlXS5GJmzQYpXfR9cwtRpltOvnWvuRRedO9NhEYAYiKVlqQGQtnf9xzskSNdPSLHe+Sw+WMf1FUnsv/vcMC0sOp2WVBFsAQAcWJtaHTqn1Z4UWVEWxri5OLpNun+3Z+am7uCz9sHotmkdrb1O8HsJBvoRrd5//WguYWJ0AiAf5IpDYc6TTiUlMPHzR/EnVYvVWmolJCGIFCqkNrsLwCAH6wMjXRAa++RF83NbbSlIW58qRIsX/yMlFR/y9zCY9v725y7t0px5RpzCwuhEQDXpSXZ1ilvHExKS1cPAdEkaZXS4qpaWbiiQh4iTAIAJ1kZGvnS4kJbGuLKh8/hyAZFW9aiFs3gb0IjAK5Jy942rSJKypEDfrWX2ScxHCat0MqkGlOZZP4IAGAd60Ijr9pbaEtDTPmyTS2qQdE2taip8Ad/ExoBsN9wJVGbtBASWWGkKqlhRY0sWMq8JACwxVTzuzX6P/57c3LbrEV/TmCE2NKWTK1gcV1/RzQr6Yvnfr67xgYXUr8xJwDwWVr2vtYum57dLret3y4rm96U5wmMrKGb5HYeOCTrm96SN1LmRQBAwdkVGmW65fzJd8zFXdrWEv6MEMAtM+/8YTBo2WX9J6IJU0oqV5uTHS78+3vmBAC+0aBonzQEQdFuWb/rkOxkPpHleuQYoREAWMOq0Eh/2u3DxrTZS5hjBGil3azaJ83FTfp+lEm1mFt4tOWtqGyhuRVe0CqX6TY3AHCdDrEeHRSx6QwAgMmyKjTq+9f/bU7umlmzIZIZKICLptc2BvO9XDbQ9VtzCtf0L9xnTnagRQ2A65KpTtn07KtBULSyiaAIAIAwWBMaXervcH7bkrbilDpeWQGEbfZdW8zJTVFV4Uy/9avmZAda1AC4ybSf6YyizW/KzuM95nUAABAGa0KjqAbO5lPQisPwa+AKOhRb53y5LIoqnKlzllo184kWNQBOSXVKc/NwVVHQfmZeBgAA4bImNBpwfAC2tuBoKw6Aa5Xd4XYFXlStszPm329OdqBFDYDttAUtCIs2D28+g5+OdKXNCQBQaFaERhdPt8nQwAlzc9PM2g3mBOBqrlcbaeusttCGzbrV+7SoAbBUEBY9O9yCRlgEAED+WBEanf/kH8zJTVplVFL9LXMDcD2uVxtdSO01p/AU/0G9OdkhaFEDAItcERYx2BoAgLyzIjRyvTWNKiPg5lyvNurv2mNO4dFNi7Ztl8ukWswJAArItKERFgEAUFgFD41cb02jyggYP5erjYLtjhEMii6psCtIu/DZfnMCgMLY+xozi+LuMDONAMAaBQ+NXG9No8oIGD/Xq42iGBRt3VyjdKs5AUB+Jc3q/PW7CIsAALBFwUMjl1vTqDICJq605nFzck8Ug6Jtm2uklZ9aAQoAeTPSisbqfAAArFPQ0Ei3Ebncmjaj8k/MCcB4FVeusW6Oz3gNpA+ZU3h0rtGUabPNzQ6ZUwfNCQCiRSsaAAB2m3Ipy5wnaJL/2CgDyWY581GTubln/lff094ScwMwXi5/7s+5e2sQfIXpbOt3rNpcNmPeAzJr+c/MbTKmmN8B4AZS7bLp5UOykyHXuJ7qZbL/hSVSa64AcF2ptOxt7ZQ9B5PZrydj//Bh3cYNsm2puWBCClppNPBZ+K0e+VJ6y9cJjIBJmv6lb1hXXTNemVPvm1N4ps1eYE52YPU+gChpdVHDZgIjAMAEaUj0WrtsevZVuW39drlt825Zv0u/nlCtGqWChkYXet0duFp6+zfNCcCEFc+VGfPvNxe3XOgJPzQqnrfMnOwxeHKfOQFASMzsIh10zewiAMBNhRYSJWRhpTliwgoWGmVSLebknqKyhTJ1DrVtQC5cDV519b7OYwtT0Ry7NqipzKnw5zcBiLG2dmlgdhHGK/tAGO5XWgAuSKY6Ze9r+6gkskzhQqMIWjzypew//b/mBGCyNHjVANZFmf84YE4hKZ5r3XDwTDd1AADCkdRh102HqC7CBPRIR8ocAXgqLck2rUDdJw3Pbg9CopWb35T1u24+nwj5VbDQKIoWj3zQOSwllQ+bG4BclFY1mJNboghUimf9F3Oyg8vtwwAskUqbVfp88w8A8Za+topo/W5Z2aQVqEk5zIw7qxUmNMp0By0eLgrmsDAAGwhFSeVqc3LLhXT4gYptw7AVc40ATFqwHW037WgAEEOjA6KGkYCooFVECVnATKNJK0holDn5rjm5p+SWleYEIFdTShcE691dMzRwIgi/w1RUfoc52YO5RgAmI9m2j+1oABATwwFRu2xqHgmIrmwzozXZfQUJjQZ7PzInt2hrWnHlGnMDEIaSL9xrTm4JO/yeVvYlc7LH0BnGkAKYoLZ9srIpyUMCctQjx5hpBNhHt5m1XS8gOiQ7DxAQ+aowlUaODlgtvZVZRkDYXJ0RFvYwfxs3Mg6kqTQCMH7DA6+T5gYA8M3elt2yvsnBgKg6IfYNgnBHQUIjVwesFs+7x5wAhKZ4rpSULzcXdwxGUIVj2za5S0Nn5FI/1UYAbk5b0hh4jTAd6UqbEwCgkPIeGl083WZObqE1DYjO9Fvca1GLIvwuKr3NnOwxmP7AnADg+va+9mrQkgYA8FlaOrrMEbGS99Bo8PS/mJNbgq1pACLh6ha1sENwKzeoOTqDDkB+aGC0ngojAAC8lf/QqPf/mpNb2JoGREe3qE2bfqu5uSPsEHxq8SxzsoerM+gARI/ACFE6THsagLBUVUitOWLiplzKMucJmtw/1nvg207ONJr/1feC2SsAotH3wXPS1/WKubmhrOoJKbvrOXPL3eDJfZI+9JS52UFbc+f914PmFoUp5ncALtGh18wwypeE1FVnf6tKyOLseeGKimCg64LKiuBPVe3lc1qSo7aOdaRM8NL1sezRtpKuHjmS/e3wcQf+3dU/KJ821pgLgMJLS/Ozu+X54+bqEt5PcpL30OjkPy42J3fokN7y+l+YG4AoZFItcvr3m83NDWG/N+jQ6VP/5+vmZo95f/R6UA0WDUIjwDXB0GtmGEWirrpWFlclpEGDocqKUWFQNJIaKmV/dXSlZY8GStlf1gRK1ctk/wtLqA4ArNEpm9a/KTvNzSmERjnJa2hk6wPRzcys2SCli75vbgAikemWk2+5NRA7iiocG4P1OXdvjXARAKER4JS2fazVD01C6uprZc2KGnloqW2tE2lJtmmY9LHsOdgjOwsRJBEaAZYhNIqrvIZGNrZejEfFspelaP4qcwMQlfS7a2Sw75i5uSHsKpxT/7QiWHVvk2iDc0IjwBkERjmrq19maUg0HsNB0hsHP5aWrqQcjrpFhdAIsEuqXRo2HxIXp13WPb5W9jwSbeWmz/I6CDtz6pA5uYXACMiPksQ95uSOoXPhftdcPHOROdlj6EyHOQGILQKjSdJqomWyY+sG+XTHBtnTuEQanQyMVPa/99IaaWxcJXteGP7fs3/rg7Ll8drhmUthO94jfPUBgMLLa2h0sf8zc3KHziwBkB/F8xwMjXqPmpO/Bvs/NScAsdTWLg0ERhPyeVD0WBAUra40f+CZ2soaaXxkVIi08UHZUp+QOvPnuemRjlFDvQEAhZHX0Gio/4Q5uaN4bjhf9gDcXFHFXebkjqG+cN/XbHzPca1lEECIUp2y6ddJJ9sR8q66VrZsXHu5osjXoGgsw5VIj8me7N/BpzvWyo6Ny2RddcL8KQDARfltTzvn3k/ki8rvMCcAUdPZQNOm32pubhiMSevWxdNt5gQgTpKpjwszBNkhuvEsqCp6YVXQeoYRFbJ66RLZ9sJjn7ey1deGVIUEAMiXvIZGtg13HY/i+feZE4B8mDb9i+bkhqGBfzOncEwtnmVOdrmYOW1OAGKD1fpjGmlB2/PCqlhWFU1U0Mqm85BGqpAe1yok84cA7JfqcbbqdHEVgX4u8rY9zcXNaVrxkHhgn7kByIf+oy/Juc7t5uaG+X98xJxyZ+t7ZXQb1NieBliJwdc3pGHRpjXxbD8DEGMOf11Yt3GDbFtqLpiwvFYauca1igfABy62hF7q979F7VLmrDkB8F4wx4iWtGsEbWhrYzuvCAAQT3kLjVxct88QbCD/ppV9yZzcEfbafRvFZXYTAOYYXSsh63TAddCGRosDgHhKdvF1Ia6oNBoDQ7CB/Js6x73a0UuZXnPKXdEcO8PqsGc3AbAUc4yuMDy36DHZxoBrAEBM5S00utj/mTm5Y0pxuTkByKeisoXm5IbB3o/MKQTFc83BLkMDJ8wJgLdS7bKJwMgYri6iFQ0AhnVQaRRbeQuNhvrde+Aomr/KnADk09QiAlsbxWF2ExBnyVSPhDfW32HB7CKqiwDADwlZSPifE9rTbkA3pwEoDNfmiQ3FZN5PHGY3AbFl2tJcXacclrrHH5T9rNAHAOCyvIVGF3pbzckNbE4DMF4XY7JZLMzZTQAswra0LNOO9kiN1JpXAAAj0tLRZY6IHSqNbmBaKZVGQKEUz1tmTvFka6VjqLObANgj9tvSErKFdjQAAK5ryqUsc56gif1jJ/9xsTm5YWbNBild9H1zA5BPgyf3SfrQU+ZmvynTZsu8/3rQ3HLXe+DbVlZnRvO+OMX8DpskU2lzCkFlBZUbNku1S8PmQ/FtS9P5RdqOZq4AJiasrxe12a8VsFlamp/dLc87Oalg+AcDjbQdT1p+QqNMt5x8615zcQOhEVBADr5nzP/j8MbH2hoazZj3gMxa/jNzCwuhUaSy38zrLqyO4Jv6tHQc7JFj+nrX5wOPDxeowqSuOmFOWVUJGfnR0sKq22VB1fB5wchDBMFTZJJxXrFfvUz2v7CEjy3Em/k6ob8HExq70rJnZEvWqK8VIj3ZrxfmmA/ZrxHDEy6zXx/0a0L260RDVfZrQvbrwQLJfk0gAMizTtm0/k3ZaW5uITTKVV5CI9eqBlTFspfZngYUkGvViXEIjUrKl0t5/S/MLSyERjnTb/j1m/2uj4Nv9I90FS4IyoeRsGlx9gFCvxFsWKHBUvYhQr8ZJFyamLZ9cltcA6P6B2V/I/OL4Dv9+mB+cBB8jci+ZIIgP75OJIKvCfr1oGFFTfCDBsKkiDhdlUpolCtCoxsgNAIKi9CI0AjXSqY6paNVfwqclCPZb/zz+lNfl5ifUOuDxHDl0nCoRPvDaGnZ2/yWrD8Qw1lGBEbwyufBUMfBj+VYEArF/OtD9mvAuqra4SBpKT9MCAWhUawRGt0AoRFQWOl318hgX9BI44S5X/k7mTpnqbnlxtbQSIUZjg0jNLqh7APA3lSn7DmYlCPZB/u4r0IPU1CtpC1xVbdLQ9VwG1zsAqW4VhkRGMFhQVWp/vDgYI+0BD84iGHoOykJWVdfKw1ramQ1PzyYHEKjWCM0uoHwH4wATITNwcn1hBk0ExrFVVqSbZ3y1weTsjOO1R+WGGl1WLji9iBM8nJ2Rvahs/nlNx0daJoDZhjBGabtuNW0HfODg1DVVdfKmkfvkUY2Jo6f0z9oqJUdO1h4kAtCoxsgNAIKi9CI0CgWtJqo9X3ZtivJA4HttOXtcnWStrs5HCbFcWMagREsNtx6/LHsOdgjR44TEOVTXf0y2eRZBVKoG1BHZL9XWZn9XsVNtbJj6z2ywNysoN9DmKML8hIaZVItcvr3m83NDYRGQGERGtn5vz3MNrxhcQyN0rL3NYIib1wVJq22/SfXsawy4qfMsAitx3bSOUiPflW+5/oMpDj+UMBBdY+vlT2PuBNUTjW/R2qw9yNzAoDxmVo8y5xgk4uZ0+aEiUq2tcumZ7fLbet3y3oCI39oVcCBpOzc9aasb9otm9rM69ZKS0usAiOdZUFghMLRKqLm1/Zl3/9fzb7/Z78GbM5+DWg6FLQh83XAItn38p3Z9/CV2X9Pm17rlJjulQSuKy+hEQBM1LTZVhWRApOUlmT2YaEh+6CwUh8S4rzNJhYSstDqlrW07G2JV2C5biPDT5FfOpuuuTn7vh/8kCD73r/5TXl+VzL7/s+sOidoeLTrzSA8am6LoM0LcBCh0XVMmTbbnAAAmAT9yXKz/lR5dzADgJ8mwwrZj8ttMRqyruX/28LspgVuJtUu3216U54/kH3f54cEbjveI8837Zbbnm2XvSnzmgtSVLAhfIRG11E8c5E5AUD+XRzsNSf7XMrY+9/NCiNhkf5kmQ1osEyyNUYBZvUy+RuH5kUAsNTxQ7J+83bZ9BpVRwjP4iq3vj4RGgGAZQb7jpmTfZhRdwOERQgkZIGtrVBaAbErLh+btbKDTWkoBKo8vLVz125paG6XpEtVR0BICI0AAMjB3tdelQbCItguRg+z6zYy+BqFkezi64DPDh84JCtf3ifN1i88AMJFaHQdmXNHzQkAgOvTbWg66HT9Ln6yDKM6IVaO8NcVzE0x2QVU/yBzjFAwHYRG/juelOebXpVNDMlGjOQlNJpWeqs5ueHS0BlzAgDgKtqK9uzwNjQGnQI2qZUdjTXmDORbWjq6zBGeG17Pv4mKI0yK7ZtWr5WX0GhqWZU5AcD4XMqcNSfAHro+P5hbRFiE66mqsHKOzt6WQ7GohqMtDQWV6pQWvjbEys6m7dYFR7RIIgq0pwGw0uCZDnOKl4un+bGVlcyga12fDzgl1S7bDpizz6qXyfdoSwOQZzYGR0DYCI0AwCIXM6fNCbbQ6iIGXWM86mxcoRuLAdgJ2fIU29JQYGxOi62dTa8yHBteIzQCAOB6UulgM5pWF/EgADelpfnXMaiOq18qjY7Nh4B/aAuKsx5p6eoUapExPglZwEwjP9AiAmAiiubUmVNuLmV6zQkF1dYum17eHWxGA5wVixkrDL+GHdicFm+Hd70pf83jIzxFaHQDtIgAhZU5d9ScHFE81xxyM9j7kTmhUJJt+6Sh6ZDsZKApJmixbe1pMWiXqXv8HoZfwwJsToNpU0uZS4EQXiIKeQmNiuavMicAGJ9LQ2fMCcifpLajNdGOBh/EoTWtVjY9YuEcKQAx1SPHUmlzBvxBpdENDPU6VuUAwAsX+z8zJ+TV5e1o/IQOk5WQhTbNKIhBaxpVRrAG6/Zh7Gx6q+DVRrBcdUIWmKMrCI1u4GLmrDkByDfXZopNm36rOeVuqP+EOSFvUjq/iO1o8Iz3rWlUGQGwUY+0tFJtBL/kLTSaMm22ObmBn/YDhePaTLFp079oTnBOW7s0bGZ+EcJg1zaUvQc9b02rv50qI9iDdfsY5fCuQlUbMVsL0chbaFQ8c5E5uYGf9gOFc7Evvl/xLvS2mhMip4FR0yG+0Yd/Uu2y7YA5eykhW9awMQ328GfdfkLqqrO/6mtlXfbXlscflB0b9dda2b911K8dG+TT7K/L9+D/z7Lgn9F/HjrbyBwBD0y5lGXOEzSxf6z3wLedehjSdpPEA/vMDUA+9R99Sc51bjc3+5Xe8nWZueTH5pabk/+42JzsNLNmg5Qu+r65hWGK+T2/dEPadxl4jVDVyo4dq+yofsl+fN+W/fj2Vv2D8ilr9mGRvc3bZb0zQa0GQ7rtsVYWrqiQBZXZX1IhtaFXSqazX2s75Y2DSWk5EMNKrIK8T6Wl+dnd8jzV03arXib7X1iS/a7BHXmrNJpWGt7Mj3wYGqDSCCgU19pDp5beYk65cW2Wk6sIjBAJiwZb+lP1cH3rVhAYwSYWtwSZqqGgYmjr2qA66NMdj8meFx6TbY1LpHFpjayujCIwUtn/u0uz/xmN2f88/c/d+qBsqY9RFdKBNgZi4/qqsp8b5uiKvIVGYT1U5RMPcEBhxLU91LVZTk5qaycwgufS8sZBn0OjWmlYao6ADSzanFZXXSvrRgdELzwmexpXSeMjw+FQQVXWBAHSp9n/bjtiER4VokUtLceoMkIE2J42Bh7ggMLInDtqTm4onrfMnHIz1Gv//27XqkavwAwjRMmWnxx6vvqbNfvA5zQk2rLxQdm/dXjG0J4XVsk2GwKisWT/u60OwqMHZV21ec1TOw92mhPgtvwNwg7poSqfMqcOmROAvMl0y6WhM+YSLxczZ83JXlPLqszJMdkH6U2/psIIMeD1FqeErFnOmn3YJdmax68tGhI9fmVIpC1m0bSXRayyRra94HnVUdfHstcc8yKVliPmCISJSqMxDJ3pMCcA+TJ42r3HnaL5q8wpN5luIo1opGVva5vsPO73nBcUVl2VHWGG1/OMsg/MD7n4cAyvdUT6OacziZaNajcbbjVzMiS6ruGqo/2PexocZb/v6GCuETyQt+1pyvatQFcrKlsoFfe1mBuAfBhINsuZj5rMzQ3z/zicn+uk310jg33HzM1OFcteDi0kGxb99jQdfL3S501SoRpet7y4SmRh1e2yQAvLgs06hg5M1d9Tabn8N5o9649YOro+lmNdIkf0ASr7jXLcItC6x9fKnkcKHRz5vTnHjr9jYLQoPucSsu7xpfK95T6FQze3t/lVWX/Av9B73cYNsi1fc9hS7dKwmTZ86zm4AZTQ6CbCehgEMD7n2n8g/Z+9bm72KylfLuX1vzC33LjwHjn3K38nU+eE+d1PxKGR76vHc1GdfTCpqpWGYOVyRA8nGi5pqNT1sezp6pEjHq9dtiLQ8PqBISFbtj4mjVQawSZhfc7p+/GK+AVFV/Iz9M7r1wZCIzc4GBrltT1NH65cM3hynzkByIfMGbsrba42tXiWOeXGlW2N4QZGESMwuor+9Hp0m8PwyuXVUc7D0MokXen8yKrsf5ZZu5z9tX/rg7Ij+99lXX1C6sz/V9cttqQ9zVu0psE7+p5s5hPp+7FXbWeTUSGNLzwo68wNk+D1TDt/2NLOPhF5DY3CerjKJxe2GQE+sb0962rTZl9u3MnJUN8n5oRQBIOvmWF0xUPJDn0oWWLFVp3aSg2SlgwHSVuXeRMcFZzHDwx1K7IP1OYM2GLiQ7B1RtHo9+S4B0VXq5HveTbf6HBX2pwAd+U1NArr4SqfGEwL5I+LlX1hraAf7P3InJA7Bl8PD07loSR/ErLQgr9jn4dgU8kFG413CLauxh+u8nxM9jTynjyW2keW+lVt1DVqBmDEvF6EgILK60yjC8d/Kb1HXjQ3N0ybfqskHqBFDcgHF4dghzUY+mzrd+T8qbfNzU7RLAeIYKZRbHv6tapoqXxPQyLzihO8+Pdlw7wdn4dgZx+4d6yS1eYG2CH7Odf8lrR0met1LH70q/K9pWaBAMZtb/N2WX/AXFxXvUz2v7DEzY8BH74+u/z3b5H8tqeV6RoWtwwNnJBL/azeB/LBxcq+sDaJDfZ/ak72mlpUbk4Wa4tjYGRa0EaqisyryKeELCh05UAqLcc83Zom9bcTGMFCFdKoLbYv3PjXNgKjSVm9wqO/NV27b46Aq/IaGoW7pjl/Mv/hS9QN2G0gfcic3KCViGFxbZaTndKyt2ui8yXcNtyGRlgElRZf9726ODQUQA6W3s5AbIQj+/WD749yl9fQSIX5kJUvzDUCoqfbwy4NnTE3N0yb/kVzyo0rs5yK51o+rjjVKdt2xaSfv7pWtmxcK3t0+5nrszHY9hIOb/8eE7JmOaEREC8VsrDaHAEUXN5Do+JZ/8Wc3HH+5DvmBCAqmVMHzckdYYUobGkMQapdNsWkLS3YvPPCKmlcyoO0NaoT4t6qD1dY0PoHAHHED3Vg5L/SyMENalr9oFUQAKLj5Dyj8jvMKTeDvW50u4f1vzcqvrbmfC4h64LqIlrRcC1vt+YQyAExVCEL3BuFCwvR3hyO/FcazVtmTm4ZOPGWOQGIgu2bw66nqOIuc8pN5owb84ymFFs6CLttn9zme5VRsK55eKgqLGTBzITxrv52DvMoAAAoqLyHRkVzLJ+JcQMD//6uOQEIWyYV9hr36E2ZNlumlIbw8+9MtzNDsKfNtHPAQHKMdcdeCNbFrnJ/dhEilJYOTz8P1q2oMScA8eHve5pLvK1gxYTlPTSS4rlODsPWhzpW7wPRuPDZfnNyR/HMReaUm8HT7tTHhBKSha1tn6zclTQX/wzPL1ridaWFD9+UFr783dd1+wlZSFgKxE+qU1q8fE9Dvi2mPS0U+Q+Nslwchq0upPaaE4AwXUi3mpM7whqCnTl1yJzsZmfYn5a9B/39KZgGRswvwrikfF23zxBsAAAKrTChke1rm2+gv2uPOQEIiw6ZHxo4YW7uCGs+mysDwKdN/6I5WURX7B/wNDQygRHcwE8yI8IQbCCWkq1JtnZZwNtZeZiwwoRG81aYk1toUQPCd/6TfzAnt4Q1n+1CrxtVVkUWbr709pvK+gflUwIjAEAcpdrlu7s8CisIvwuIFuewFCQ0mjpnqTm5hxY1IFwDJ98xJ3cUlS3UkklzmzytsnLFlOJZ5mSJYJaRhz8B06HXMQuM+ElmCFI9fgaobE4DYifp6/sZ4LCChEaqpHy5Obml7/gr5gQgV7o1zcXWtJLEPeaUm8ypg+Zkv7Da8cLi50aPWtnh+dBrP/GTzKgUfsA4gLzSKqMmf5dbuIUNdvhcwUIjV+ca6QOuS9UBgM1c3JqmiueFExoNfPaeOdnPqnX7vpWuBxKyZesqWW1uwESwFhmA81KdsqmFWUaAjQoXGln2U+uJ6P/4780JwKRluuW8g61pqnj+feaUG1fmGSmr1u17WLpe9/hXpZFqFUex4SsqDBgHYiKVlr2tbbLTx+UWtNkWEF+fw1Kw0Kho/iqZMm22ubkleNDNPvACmLwLqd/IpaEz5uaOsOYZDZ7cZ072C/432yLVLg2+la5XL5O/eSSuD8eUv4fBz7lQtP0BsZBKS3PLW7LexzmFTkvLsePmiNgrWGikple4WW2kD7r6wAtg8vr+9X+bk1vCmmd04YQ7VVZFpbeZE8KXkC1PMcfIaWzGAYDJ0Za0l3fL8z5WGAEeKWhoVPKFe83JPa4+8AI20Llgg33HzM0tJbfeb065udDzvjnZb5pF6/b3thzyqjWNtjQAQCy1tUvD5jdlp+fVLM4O9E+l5Yg5Oosf6oSmoKFR8R/Um5N79IHXpfYSwCauzgXTllptrc3Vpf4Op0Iza2bQpdpl2wFz9kGs29KAm2EWBeAlnV/U/Krc1uTXD4EAnxU0NNLBqlbNypig852/MicA46WBSf9nr5ubW8Jqqc38h1vJhzWb0zwbgL3uUdrSvJiZwJBTABiHtOx97VVp2Lxb1tOOBjiloKGRCms+SCGcP/V28AAMYPzOH/+1ObknrJbaC//uzqp9ra6yY3NaWpp/7dEA7PoHZdtScwZywjBxABZLdUqzVhat3x0Mu45bdRFbIAuIH+qEpuCh0Ywv/T/m5Ka+o83mBOCmMt3S94m7FXollQ+bU240cHZF8cxF5lRg2W86W7yZe5CQLWtqzDnmfJiZAAC4ilYV7ZOGZ7fLbZvfZNC1izyr7kZuCh4aTZ2zVKZNv9Xc3KNtNlQbAePTn/y5k2v2VVir9jOpFnNyQ/HcOnMqMJ++ealfyvBrjzg75BQAwqSzikaCoqCqKCmHWdkOeKHgoZGaPj+cbUSFQrURMD7nU/+fObmntKrBnHJz4bP95uSGovI7zKmQfGpNo8oIAOCHpGk9a1ivFUUERddKyEJ+SAQPWBEaud6iRrURcHMXjv9ShgZOmJt7SipXm1Nuzp98x5zcUDz/PnMqIJ9a06gyAgC4ylQTbQqqibbLStN6RhuTf5Jd7rcUUgkcHitCI9db1BTVRsAYMt1yLrndXNyjrWlhDIPW1jSX2vOC9+UQWvJy5lFr2roVVBldwYN/tww5BeArrSTa+1q7bHpWB1l/Xk20k2oiIFasCI2U6y1qVBsBN6azjFyuMopra1pJxXJzKqy9Bz1pTateJt9jYxpCVyELqszRKz3SkTJHAHmQlmSbtpuNzCUariRav+uQ7DzOIOvJScgCqovhAWtCI9db1NS5D18yJwCXOb4xTcW1Na2o3IJV+6l22XbAnB1Xt6KG1a8AADtoq1lbu2wamUm0fresbNJ2M+YSQaTDg/Y0KoHDY01opC1qwXYih+ka7cGT+8wNgHJ5Y5qaMe+BWLamqeJ5K8wJuauVTY/wzcvV3J+ZwJBTAI4I5hFd1WrWdEh2MpMIwE1YExqpsFpACqnvo5+bEwBt2TzX6e4sI1XyhXvNKTeutaZNmTY7CPMLLdma9OOb2frbJZx6NQAAxuF6IRGtZvlVnRALaraBnFkVGk3/0jfMyV0XeluDLVEA3G/Z1OCkpPJhc8tBpjuYe+aS6RXLzKmwfCiPVgzABiaqR44x0wiYANNuRkiEnKWz33+Zo7OoBA6TVaGRbunRVhDXnTn20+AhEYgzbdXUlk2XzdAB/SFsD7uQ+o05uaN4bp05FZA384xqpYEB2Nflfihox5DTBVUJcwIQJ7rdrHnUTKKg3YyQyB5VFcwyhBfsCo2ypld9zZzcpXNL+o7+1NyAeDrzwfPm5K7pXwyhyiir71//tzm5g3lGIaI1DZiUI11pcwIw7MqWM91u9jwziQBEzLrQqLhyjUybfqu5uauv6xW5eLrN3IB46T/6ktMr9pW+DxXNX2Vuk6dznQb7jpmbG2yZZyQpP74RpjXtRnwof7dDLZVGgL+C2UT7Pq8mouUMkUvLMTboYRTrQiNVVv2EObmt9/d/aU5AfGhI4vqKfRXW+1B/xy/MyR22zDPaezBpTi6jpx6YrMNUGiGutO1sJCgKZhN5shQiZupY+V5AdrSP+8LK0MiHgdhKqwu04gKIkzPtzzm9Yl9ppU1Y70P9J9ybZxTWxrjceFKFUl0rD/FNi7/YjBOtrrT4EB0D4zK6okjbzgiKUCjZj8Uj5ggoK0MjHTxbesvXzcVtum6cNjXExUCyOdgg6LrQBmAf/6WTAVrxH9SbUwGlOqXFh9JohmCOgfL30FQmxILR9eE7npQ32KAGr6Ul2bZPGp6logiAvewMjbLKFjWak/toU0McaFva2eTPzc1tYb3/nO/6R3NyR1HZQplSSu1EWJhnNAZ+khmeygpZbI4AHGC2numMopVNSTlMgO6lxbSnFQ6VwKGyNjTSh5aS8uXm5jZtU+v74DlzA/x0unWT821pSt93wghNNERzseqqJHGPORWYF0OwmWfkPSrJItYjx6g0gjdGVxUNbz0DABdYGxqpsjueNCf36Ta1wZP7zA3wi87ucm1D2I2U1jxuTrnpO9psTm6Z8aX/x5wKK9nlwzfTDGFEvlTIwmpz9Axr9+E+nVX0qjRQVRQzDv/gyJPttQiP1aGRrrv2pdpInW7/C5FMt7kBftAwVGd3+UDX7BdXrjG3HGQ/z8+ffMdc3GHNqv2sDh9CI0qjx8Y3pSGqkAVV5ugZNqjBWaNa0Nbv4v0OgLusDo1UWD/1t4G27vS2bjQ3wAOZ7uEw1BMzazeYU24GPvmVk616wQBwK3iyOY3WpTH5UE3GOuU86PpY9poj4AQTFjXQggYUDt+Dhcr60Eh/6q8//feFzjhhDT98oSGoD3OMlL7PlFR/y9xy03f8FXNyS8ktK82p0PzYqkWggHxaUJUwJ88c75EO5hrBEUEbmgmLqCyKO3db1P0YEYAwWR8aqbB++m8LbeXJpFrMDXCThp8+rNcfUVb9hDnlRtfsDw2cMDd3aGtaKK15YfBkqxZbU8bmRQuiRWp9DY0Yhg0HJNvagwHXtKEB8JEToZH+9N+naiPV++GLcvF0m7kBbtHQ05c5RkoDk+lf+oa55abvX/+3ObllesUyc0I42Jw2Nj9aEK0KBisTUmeOvmEYNqyVSkvzs9tlZdMhBlzjSsw1hEecCI3UrEV/bk5+COYb/f4vGYwN52jYqaGnT8o0MCqea26Tp0PBXd0iV/KFe80JgJMqK2SxOfrm8MH3mWsE62h10aaXd8vzhEXwjA+VwIwICJczoZG2Tfi0SU3pwyWDseEUHXz9/n/3Zo6R0iqj0tonzS03fR/93Jzcon8HJZUPm5sFvNiqxbr9MaU6pYUHrZD5u3afuUawTbJtX1BdtJP3sfBV18qOrWtli6/vZ4CDnAmNVNkd4TzY2URnwpxr/4G5ARbLdEv6d3/m5LyesYRZZeTqjKdga1oIfwdhYQAj3GBbC6K/a/eZawRraDta86uysilpXkBoTFj06QurZHWlB+9nbO+CR5wKjYrmr/Ku2kj1f/a6DCSbzQ2w07kP/8rZ1qsb0VlppYu+b265cbXKSNmzNc0jzDIYmxfVZPbxdoNa1s6DneYEFEjKtKOxRj9ECamrf1D2b91wOSwa5sfcOzcxcxDXcio0UrOXPGdOfjnzUVOwdQmwkVbDabjpm7A2M7pcZWTV1jQAOfF3g1rWgTZpptoIhaLb0TbTjhaWuupa2bJxrXy64zHZ01gjtR62czNTBz5xLjSaUrpASm/5urn5pffIiwRHsE7fB895GRhplZFuZgyDy1VGQWuaZVjF7j8/WhAtnFu19HZZZ47+oUUNhaHzixp0O5q5Y3JGgqL9OzbInhdWSeNSQhXAFc6FRmrmnT8MfjruIw2OWMUPW2iI2df1irn5ZfZdW8wpNy5XGanS279pTkD+EAxGxeNh2Fk7D7YLk2SQV8HA6ySB0STV1S8zFUWfB0Xjm/OTlmNUdRUIf/e4lpOhkQ5snRXStiMb9fxzI8ERCk4DIw0xfaSz0XRGWhhcrjLSaqupc5aaG5AvzKqIjs/DsLMOJOUNqo2QL2375DYGXk9QQtY9vkx26IwiDYoal8S2ooiZOoVk26IK97kZGmVNr22UorKF5uYXXWdOcIRC8jkwUrP+8L+ZU25crzIqq37CnIA8Yt1+pFav8HlfDy1qyBMCo/HTtrPHHwzaznRG0bZHlsjqXB/YU2k5Yo7IM/7ucR3OhkZq1uI/Nyf/EByhUHwPjMqqngitusblKiNVUrnanABMmK0b8ioTUmeOPtrZ9CoDsREtHXpNYDSm0W1nuvWs8ZEa1stfgUoX+MXp0EjbS3wdiq1GgiOtZgDywffASGehlS162txyo39XLlcZzZj3QLBYAMg71u1Hq7JG1ng81wiIVKpTNv2aGUbX0tX4tJ0BceV0aKR8HoqtNDhKH3oqeEAFoqRr9X0OjNTshU8HM9HCcC653ZzcNL3qa+YE5Nfeg/wEP1qezzWSHnm+hYHYiEJa9ra2yc7jDOofpvOJHpT9QVCkq/FDaDsD8sLC7aaOcz400gfA4EHQc/owT3CEqGhg5ONa/dF0+HVYK/b7j74kQwMnzM09OgC7uHKNuSESxxnYe12pTtlzwJxdVzXeLUD55/dco6wDh+Sv6d5H2Nrel/W74h4YXRkUbdO2Mx6+J8Hh0IJqYFyH+6FRlj4I6gOh7zQ46vvgOXMDQpDplrOt3/E+MFJhDb/Wv7O+T35lLm6aUfkn5gTkGwM282Lp7bLOHH115GAn1UYIT8wHX3/eemZJUERwAVjFi9BIzV7ynNdtaiP6ul4JqkKAnGW6Jf27P5Pzp942L/hrZs2G0IZfn/vwr4K2UZfNqH7UnIA840EgTypkoedzjQ4faKOaD+EI5hjFsMKoOiHrNq4Ntp7RegZgLN6ERjrQdVbtk+bmN60KSb+7JnjoByZDt/KdeudrMth3zLzir6KyhVK66Pvmlhv9e3O9KkuXBzAAOx9YDX49Ps0zqquyeQhshTy0ImHOvuqRlhaqjRCC1MexmmNUV10rO7aulU9feEy2LbW3zdZptm7XHIdklwefCw7//dvKm9BITa9tjEWbmtKH/Z731rKSHxOms7F0K5/r1TLjVX73j8wpd2f/5X+Zk7umf/Fhc7LXgio/HnaPdKXNCYFUu2zzZZ6RA2qX13q9el8dPvAms42Qm+z7UlzW6w+HRRtkzwurZHWl3ZvPvAguAI94FRqp8uVNsWhTUzqIVx/+GZCN8dKZWDobKy6BUZhtaa6v2FdadVU0f5W5IWqHCY1QSDFZvb+z6VVppqoPk5SMQ8vsFWGReQ3RsnhRAjAZ3oVGuk2t/M5nzMV/+vDPgGzczKX+jqClUWdixUWYbWnaCnrm2E/NxV1l/+n/NSfkRdfHstccIbK3JenVw9liq9vTVBxa1IYdSxHQYhJS7fJdr6uMhmcWfUpYhAnooMoL1+FfaJSlq6R1bkecaBigoYCGA8BomVSLdL/3zVjMLxotzLa0vqM/db46S9fs66ZJF9R60p4mx3ukgwqIYUFrGt+I5lscWtR0ttHOpreoNsLEeVxlpNvQ9usmtKW2h9vXR3AB2MXL0EjNvPOHQaVBnGgooOEA7WoI6Gr4D56T07/fHJt2tBGz79gYWlva4Ml9XlRolVU/YU4OqEx48qDLMOzL2JpWGDFpURseir1P9vL5hvHydpbRcHWRbkOjPapw7F6UEAO0B4bO29AoaFO7+0exmW80YqRd7Wzrd9iuFmM6IF3X6cepHW2EDsPXofhhOXvkJ+bkLn0fnP6lb5gb8olh2FnBOmvfHs4SstCJdo/4tKgdPpCUPbSpYby8DLITsmWru9VFsEFaOrrMERjF39AoSysNZi982tzi5fypt4dXqp/cZ15BXPQffUm6f/ensWtHUxqO6DD8sOjfpQ9/j2UaGBXPNTcHVFbIYnN03eGDrATXb0KPHDdH5F3tI0tlnTn7bmfTbtnENjXcVFqafQuyddj1jsek0YvZRQQXgG28Do2UzvCI23yjEVp1lD70lJxr/wFVRzEQVBe9u0bOdW43r8TPnCX/I7RwRP8+ffi71CCttPZJc3NFhSz0paXmeFLeiHXLTPbhrOUQrWkFVSMN9eYYAzubthMcYWypTmnxKcjWwEiHXZsrAITN+9BIxXG+0Wj9n70eVB3pQGR4yMwuimt10Qhdrx/mOvne3/+lObmt9NaH3aoyClTIgipzdF7M5xq1vS/PHzBnryRkgUM/0V+9ZlkMBmJ/LljDT3CEG0i2+rTJkcDIRvZv17yRtByjMhjXEYvQSB+Y5izfFrv5RqNp1ZEORO498G02rHlEg8Ce99bGcnbRaDPmPRDeev0sX9rSVOmCb5uTWxb4skEta+ev2+PZopbq9K8FxFWxGYg9okdafs1gbFxPWt7wZjOXzjDyMTAiuABsE4/QKGtK6QIpv/MZc4uvC72tcur/fD14KKZlzV3aOqUBoAaBQwMnzKvxpFWEs+peNLfc+dKWprQ1V9/7XOTN2n0V2xa1tF8tIE6rkMZH47VL5nD2825ba6ckCY4wmrameVL9uG6jLzOMYI1UWo6YIzBabEIjVVy5JljFDQkeirVljfX8btEqMZ1Rpa1oGgDGXTD4+u4fhdd+len2pi1NlS0Kb4tc3nmzdl/1SEtrzLY6tbVLw2ZmGVll6e2xGYg94vCuN+W7LTGt9MP1+bI1rf5B2bbUnH3jfHDhynZNYPxiFRopXcUd18HYVxtZz9/z9irmHdku0z28Fe29bwYzqjBMqwd1S2JY+o7+1Ju2tLKqJ5ytMgp4tEFNHd71ljTHqOIhKT6usx6lOiHufXbVyPcej8f6/dEOHzgk332NLYYYlvSiNS0hW9bUmDMARC92oZGaueTHsR6MfTVtbxqZd8SKfsuYsEirwrQ6TIM+DNOqQa0eDIt+7PsyG0orsMoWPW1urvJog1ogRgOx2/bJyiYe0W0Up/X7owUVRxoc0aoWex0+hEb1S2lLA5BXsQyNVMVX/lamTb/V3KC03UlX9Gt4ROVRgREWjUmrBbVqMDTZv+/T7X9hLu4r+9I3HNyYdjWfNqgNCzY6+f7QmuqUTb/2Zcisj+JZbaQ0OFr5MsOx461T9nSZo7OoMrKfW9s1r+BL+yZCF9vQKNiods//jPVGtRvR8Egrj7RtjZlH+TUys4iw6MZKypcH1YJh6m3d6M3ftb6nldY+aW5uW70iXoN7fZBMfSw7j8cgNKqqEFc/OuNabRTQ4dgv72Mdf1zprBzXh/NX18pDvlcZEVwgV11pWpJDFt/QKEtnoSS+3GxuuJq2rY3MPGLbWrS0Neps63eGN9t99jph0Q1oW2n58iZzC4d+bPs0VNyPKiPDq2HYqkee37xdNvn6wEpbmiNqZNvG+AayulXt+aZXs5+HMRtODy/UrahxNrAG4K5Yh0ZKg6PyxaziH4uGR1r1cvKte4MqGOYehSTTLQPJ5iCU07bA86feNn+A69HASNtKwwxE9GNZP7Z9oS23pYu+b24eqKyRNV7NNRp2pMvDobxt++Q2AiN3LL1Htnj4uTV+PbKzabc0vEZwFCseVLAsrqowJyB8fgyKzzreIx3miHDEPjRSJdXfIjgaJ62C0YBDgw4NPLSdChOj86K0qkhDuDMfNQWhHMYW+mp95dkcIzWzdoM5+aJCHlrh3/wVna3y1z5VG+l6/ZgFRnXOP7hVSOOj1Csc3rVbbnuWOUdwBavcneDkdk3f9EgH7+uhIjQyNDiaWePbA1d0NOjQwEPbqXRwdjD7iPa1G9KgKJhV9E8rgnlRVBWNnwZG2kYa5mp95dMcI6WznvR9zDe1VX4O7d3Z5EmbWjD4Osn8CRctXSU76s05zo4nZf3mV2UTVUewnsMDlifAm2oXwCOERqNoW4duZcLE6DwYnX2klTMaIFGBlJXpviYoYlbRxEUVGPV98JxXc4xU2R1+DL++xtLbvR3aG2xTczk4SnXK3ta2eAy+9tTqxgfjOxT7Cj2yc9duaWhup+rIY86HEVSwIGId3gR2PXKM9/JQERpdRbcyERxNnj6Ij1QgaQubPpwH6/tjUIV08XRbEJhpcKYBGkFRbqIKjLQqrq/rFXPzg75nFc1fZW6+qZEGb6sheqTl1/vcXMOf6pTmljZZv4vAyG3xHop9tcMHDsn6zdul4bVO8woAwEVHuqgeDROh0XUQHIVDW9j04VzDk5EqJJ9CJB2irJu3gq1n/7RCun/3p0Fg5lsFSyFEFRhpsHfm2E/NzQ/6d1W2qNHc/OTz6v1gk5OuAHcpONKWtJfflOcPEBh5gTa1a+jcsdue1UpAHjqAfHO+2qWqgg13Fjh88H3Za87I3ZRLWeY8QZP8xxyirUVaKYJo6Kan4ln/RabNXiBF5XdIUcVdMqXUwsLbTLcMnj4smVOH5GL/Z5I5c0wG+46ZP0TYogqM9N9jz3trvRs8rrPY3N6YNsX8PpZO2bT+Tdlpbn5KyJaNj0ljyB/2oWtrD2YYxb0lre7xtbLnEZ+2GMXhc2ySqmtly1OrpJEBxLkJ2lk/lm0Hk3L4uHnteqqXyf4XlkTz0O36lsco/24ssrd5u6w/YC4uqn9QPm2sMReXpKX52d3y/Fifn07Jfl+1Nft9Fe/doSA0ugmCo/zT1epTi8qleG5dcC+etyz4fWrxnPCDhCydvzR0bvgdUoMhNXSmQy5mzlI1lGeRBUZZ6XfXeBf2afCaeGCfublqPKGRB99EjktC6h5fKnsesfObzeRr++S7uxh6rfwLjbJcf6COWvaBfcdTNbK6kpXn45OWvW2dsmeiITOh0Rji8RBMaFQovoVGIus2bpBttv8wzhGERuNAcGQnfWCeNv2L5jZ+QwP/xpp7C0UZGPn6OVyx7GUPZhmNLzSK0wNt3eMPyqbl+nBqXii0VPbhr/Ut5heN4us3ovEIZ3NUnZB1j341+++f8OhKaUm2dcobB5PScqBn8uFylA/cqXZp2HzI4eA7DqGRB8EFoZFFqDYKCzONxoEZR3bS4EcrgSb6i8DIPlEGRjp3ysfAaMa8Bzwefn0dS++RLdXm7Dmdp2LLCnCtLmrYvJvAKCZWN66NzefZpB3vkZ1Nu+W29a9KQ3OnJOO6oUfDZG1Xbc7+Pazfnv372C0rmw4Fs85yCWXqqgjjboyNUC7gYxg+IjQaJ4IjIBrajjj33r+PJDDSTWnnOrebmz80ZJtV96K5xUWFPLQiYc5xMLwCvFDDeJP6MPjsdllJO1rMVEjjC6zhH58eOXzgTVm5eXvwebrptU7xtxYyLUmdSfTavuz7wqtym4ZEGiY3HZKdOYZEV1sc5QN3ZYUsNkdXsREKmIgeeX5z9vsowtacERpNAMEREC4NjCq+8reRDEDX7Xa9R/wMVmbVPilSPNfc4qP2kaXxe5g9nv2GR6sans0+rEX+UKrtJfukQcMifRj0qkQd41cj27Yuk+GpghgXrT7a9aasDCpuNEBql73OPqSMBERXVRFtflPW74p6CH5CFkbaRlIhCx2vpDu86y3PH4DTcoyvPQXi6999j7S07HP4PdkOzDSahIFkc7BaHcDkaXtVUC0TQfihq/V7/rlRLg2dMa/4o6R8uZTX/8LcfDDOmUYGM1dE6uqXyaY1IQ7kzT4gNre0sUJ/AmIxXJPB2KGoq66VxStul4blFdYN0U6m0tKhvw5+LMe6eizYilgrO3asktXmFgUfvoZ4/f7j/NwpnUvo6qIEH2cafU7fizc9lX1/Yb7RpBAaTZK2vfhaxQBETSv2tHIvCj4HRmreH70eSWVW4UwsNPLhG8ow1dXXypoV98hD2YfR2nF/I/T5wFqCosmJy0aW5GuvykrmWYUskf28TcjiqtuloapCFmQ/b2ujCpNS2c/17G8aDEnXx7KnS9ubeuRwwcOhG8jDAGE/PqYTsmXjY9Lo43sQoVEB+R0aKQ2O1jy6KpLPneHvq9puugjA1Y8PQqMc9H3wnPR1vWJuAMajfPEzUlL9LXMLWaZbet5b6+2w85k1G6R00ffNzRcTDI2yqDa6sbpqfRhNyMLsA+mCKvNiVzr7sNhj98OiY+K0xpfPt/zRz18NBBYHn7sJaVgx6sGiskJGflwQhEAjzOe30s9x5erneV4epjypoFu3ca2fG/w8CI3c/frgf2g0oq7+QfmbNTUT+GHbtbSN943Wj6XlYDL7nmteHAdCo5i51N8h3e9909tqBiBsOrx5zpL/Ed3Gr0y3pH/3ZzLYd8y84Jdg/tN9Lebmk4mHRlQbobDitsI3LXubdxMcIXL5edjulE3r35Sd5uYyL8NrQqMCik9oNGK4Ze2ecbQOa4V2Wt44+LG0dE0sJLqaqx8fDMKepNOtmwiMgHHSwENX6hMYTV753T8yJ0jlEtlUb84AIlbBKn7kQdRDsEe4Pwx7xM6m7bKpzVx8kQp3Gx8mouLzCuWYOHw8Kes37w42QjYEC0faZW9bpzTrpkhdBDCyLVKXATS9Kc8fyC0wyt/7XPgIjSZB29J8fjgFwqQDr3VDWhQr9QMxCIxm37Exur8/R61uZC04kD+6ip/gCFFKBPOdolchD63QNkA/7Gx6VTa1sYYfyJUGSDt3HZL1Gg7ppkidTRR6q2++3ufCR2g0QZlUC3OMgHHSGTyzlv8suvXwMQiMdFva9NpGc8PnauR7j/vzjT9gv+HgaAdVfohCdfZhyhyjVru8VurM2X09srPpLW+Co6SZy4XCWFDF91WRqr890u2QUSI0mgCdY9T7IRvTgJvR+UUVy16OdmhzDAIj/XucveQ5c8PVah/5KpUPQF4Nt6rtqOfBAiGrqpBac4xcZY2s8eprhwZHu6WhuVOSKfNSgSTb2mXTs9rOM8av7H9Pf7nbfqRqCY0iVZd9n3MVodEEnGl/jjlGwE1oZcy8+38b3fwiFYPASM1e+LRn6/XDViGNTy3z6CfGgAs0OHqM4Aihyu/DlF8taiMOH3hTVr6sc1k6JZ/74YaDouHZLyubDsnOm8x8cfnB2XuVCb6nitBiQiP/9R99SS70tpobgOvRdrTy+l9E146mYhIY6SyokupvmRtuqHKJ/A1takDeaXC0n889hCTfD1N+taiNEsxleVNWBkN9owqP0rL3mqBovG1lCVmz/Mb/rjtoTyusygpZbI4Im9tVaIRG4zB4cp+c69xubgCuNm36rdG3o6mYBEb69zmrjlbY8aJNDSiM2kcek/0bPX34Rh4V4GHKuxa1q4yER9oO9uyrQYC0NzXJuUfZf05DombdJhW0mO2W9RMKikaprpWHHH5w9p8/2wXt4+4QbDXlUpY5T9Ak/zHXZB9ST73zNdrSgBsoveXrMvPOH0ZbXaRiEhipuV/5uxhtS5tifs9Rql0aNh9iVS/yoFZ27Fjl7DDLSKQ6ZdPLb960LQW4vgJ9TrXtk9ua8tnIZYnqhNRVJWRx9iG2YcWVVT8dXR/LsS6RI1rxczz89fd1j6+VPY/cqNIoLc3P7pbnnX4fSciWrY9Jo8PhwN7m7bL+gLkgPNXLZP8LS/I3uy1kVBrdRG/rxtACozl3bw3mvQA+0CHN+jE9c8mPIw+MLp5uk5731sYiMGK9/iRVLpE9G139Ugw4rrJGtrGSH5OVx81pV1h6Tzw/ZjUMOqArxYfXi4/+NbxqPBmsGg//hzBjt6bBDmxQi0hVHof9R4DQaAxhzjHSB8HiyjXBvBc96wM34Cqdt6PDrvVjOmpBYPTPjTI0cMK84i/9e2W9fg6WrmLGClAwupJ/A5+DmLiCPUz5ORDbWjdtTUvLMeerFd1uQVLezvsqMNcHwBMa3UCYc4yufhDUsz5w6+uAS0aqi2Yt/1n07WhZ+nmogVEc2kOZYxQOnbGyo95cAOSdfg5+upWthhi/Qj5M1T6yVNaZM6JVt6Jm7HAwlZYj5ogCYhh2JFzenKYIja4n0y2n2//CXHJzwwfB7AO3PnjrAzhVR3BBWdUTeasuUheO/1LSh56KRWAUhHH3/M+8BHFxsLqRNhmgoLRddAefhxifwj5M1cj3qI7LA1rT3FEjDfzwLWS10uD45AlCo+s4e/iZ8OYY3eRBUB/A9UFcH8gBG41sRiu767m8hRraGtp7JD5VN7MXPs0co1BpmwwPrPZJyLqNy/ipfmyMtKvR6oCxFH4NNRs484CtaU5ZvYIZkaEq1Ny2EBEaXWUg2SznT71tbrkZ90Db7IO4PpDrxiQGZcMWWv0ys2aDJB7YJ0XzV5lXI5bplnPtPwitNdQFGhiXVH/L3BAegiPbrNv4mGxbWsM635ipfWSV7Nn6oKzj3zuuy4YZMNmvF4/ykBylm7amwS5Lb+cHPGEq2Ny28BAajaIDd8981GRuuZnMQFsNmHRQdvniZ2hZQ0HpGv259/69lC76vnklD8xK/f7PXjcv+E9D4qCCCxEhOLLFuo0bZFvwMxQPBp168BPDvAu2q1F1BIstXcU8vAiNqwUxFcXGNkwObZthcn0ItiI0GqFzjN7/7+aSm1wH2mrVgbasaZUHkE8aYmgrmq7Rn1Kav8ciDWxPvfO1WKzUH6HvE+XLwwmpMRaCo8LSlrSRwAhxN1J1tKWehxEYFoWwqxsfpLoiEu7Pc4kjhsSHx/Uh2IrQyNA5RmGt9A5loG32n9cqj3l/9HpQ9QFEKQgwFj8TVLrlrRXN0IHXcdmQNoLB1/k2PFtlBw+qeZaQLVu1Jc1cAVVZI42Nj8l+nW9FmAur2jZqZNtGmqhCV3+7rDbHsSS7eszJYV5VolJtFI7Cz20LA6FRVkHmGI2TVnto1YdWfzDvCGEbPbeoEHN1+j54Lhh4HafASJXf+QyDrwtgdfCgSntMXlTXyo6tj0nj1d8osVIZRu3SJbLthbWyg5a1WLOubWPpKtnPg3Ko1q2oMaexdfgQGnmGaqMw2DC3LXexD40KPcdovLT6Q6tACI8QhpGwSNsg8zq3aITOL3p3jfR1vWJeiA+t6NKtiSiM2uwDwZ6ty3hIjVBd/YOy/4VVsppNObipClmtLWs71lIJGFM2tm3UPvIY841C40eVRXxRfZczT6rP4h0aZR9ce3//l+aSm1znGI3XSHikD576nwlMxDVhUQHaowZP7ovd/KIR2mrKpjQLVC4JHlKZqxI2nV+0VvY0siUHE1URVAJ+yryjmLE3UFjdyCy8UIx71X5aOrrMEXah+i43VrXgTl6sQ6NzH/5VaA+u+Z5Pog+e2lKk4VFR2ULzKnB9NoRFqv/oS5I+9FTs2tGUViJqqylsUWHmqtAaE4rqZUE72ral7g97RAGZeUeER3Fhc9sGSxTCwKp9P9Q+8lU+FybJh81pKrahkQ7fDWu1tz6MF2o+iYZHFfe10LaG69JqNBvCokv9HUE72rnO7eaVeNFgNx+ViJi4oF2NqqMcDFcXffrCkvG1o7FSGeNBeBQP1rdtDAdHtE5O3vjbD9Ny7Lg5wkL6ucB2wcnwYXOaimVoFMwxOvZTc8uNBjUFmQlzldEzj7SiAfE2sg1Nq9EKGRapTKpFut/7Zizb0ZQGRhVf+duC/jvAzYxUHbHNaSKC2UU7Ylhd5EmpuRNGwiOdecTAbP848bk03DpJe85kTGDVPksSHFAj23YQHE2MPzO94hcamTlGYbXHXBzsDWa02ELDo1nLf3Z5Vb+2JSE+NDDU4LBQ29CukP1cO9v6HTn9+82xbEdT+vlXfvePCIwcMbzNacNwyxrh0Q3V1Wsr2gZmFyGPRgZm6+cn4S7yT4dj68ceweUEjHPVPlxSI9u2Psh78Lj5sTlNxS40CnOOkdL/Wzqj5Vz7D4KHZFuMrOrXtqTZd2xkaLbHNJgoq3oiCAo1MNTgsNA0SO15b62cP/W2eSV+9N9L4svNrNZ3UNCyRnh0jc/DonG2ol1HkpXKyNFIuPvp1uG2IR7i3eXarA/92KOdefwm9O+X1mV3VNZk34OZ9zUunmxOU1MuZZnzBE3yHysgnWPUeyS6uSLBw/uXvmFFu9r16IP8wL/9JrRZTigsbY2cUfXHdm3jynRL39GfxnKV/mgERhMxxfxur2SqU/765TdlZyznLSRk3eNL5XuPhFNVlHztVVm5y/HgqP5B+bSxxlxgA/0cfaOlTZ4/QCjpknUbN8g2R79MJtva5a9/fSimXxfGIyFbtj4mjeP9AUPbPrmtKWkuDovV14e07G1+S9bzvntjHn08xCY00kG8OlclH20ywfr9RX8uxZVrzCuWyT7YD3zyK+nv2hPbOTOu0o+t6fPvl9IF3w6qyWyis4vOHv2JDA2cMK/El7YI2lDx5Qb7Q6PLUtlvkFrfl227kt7/RFSrijatqZHVleFWAuxt3p79BtNcXEVoZLWRAKkl+yBD5YLNJhgqWCktybb35btN/n9NmLDqZbL/hSXj/mGDFz9QUDH8+kCAemN1j6+VPY/4MfcxNqGRbm7Kd0CilSBldzxp9cOjDgU//8k/yMDJd3jYt5RWrcyYf79M/+LDdn4s6eyiw8/EuhVtNB1AblX1l/UcCo1Gyz6YNrd+LC0eBUgaFK1ZUSONEQ62JjRCXo0EvQezn6c80BRYQuqqE7J4xe3SsLxCFlT6NVA+2bZPvvtrPs4um+D7JKGR67Lvta/F44dqE+FyNeXVYhEa9X3wXEHbZXQgddmiRusqQ66mlSIXPtsv50++E9vBxbYYCYpKbllpb8Va1kCyWc4mf87Hi0FgNBmOhkZX0G+WOmVP9sF053GHvunNPsCtW1GbfYCb/IyiiUlL87O75XnXH6oIjRylVSFpeeMgVUhRC8KhqlpZuKJCHtJwKOSKRavpDxRolZzww/JEf6CgH2N5k/26Pu73i9h/fSA8+pwP1ZSf8z400iBEtzfZQIcVly162olNSvr3ljn1PhVIeaStZyUVy60PipTOxzp75Ce0N45CYDRZPoRGV9HqhuyDQ8fBHmnpyn6zaUWQdOVP+cNuOxsfP0Ijn8rN420kRPo4+3lKhcjEmfeUqoQ0rBiuHBLPqodyNdy249gPE0Lh18MyJieObWt11bXZ77Oy74lVNbJgqV/vh16HRvmcYzRel4dl1z7pzBpubWEbOPGWDPz7u4QEISsqWyjTv3CfTL/1q24MTc50BxsIGaZ+JQKjXHgYGl1X9gE1lZaOlEhH18dyrCv7UlePHBn+wxyDJX14M8fsA9zi7G8LV9wuC0Qf5MSin/J3yqb1b8pOc3MVoZHHrAx8C2e4mmM4GNKqIQ2G9H2lljBg4rIfV3tbP5Zt2Y8t7z6ush8nddmPkTVV2a87HrYeIlca0Hd6FqBmP+br9b3Rz3bb6/E6NCrEHKPxcjE8CmS6JXPy3aCN7UK6lSqkCRoZZF087x4pnn+fU//u+4++JH2f/IpWtKsQGOUqLqERJNUuDZsPOV+yTmgUNyOBb/ZX9oH/WBD26oO/+WMX6UO+/m5CZtEHn6rs70EoZFPQ7LGrAsoJtUAVxPAPJ4IAcSQcIkDEZGQ/9oOFBQ6E80Fwru+T2V9B9ZBVP4jLL29Do0LPMRovZ8MjQ6u5Mv9xQDLdhyVz5hiVSFfRSqKSxD1BSFRUcZf1c62u58LxX8q55HYCwusgMAoDoVFsEBrBQxooabCkVYT6+57sg9CwHjmiFYUjwgwFRkKfUfShZkTwUK8hUFbQNhbgAd8Foz+eLlelXvWxFM5D9nAIdNlIgJh9Pagqy56GP3b4uEE+aJCU/Zg3H/8j76NHNFA1wvi4v3IWloZBw6fL75kE5zfkbWh0rv0HTrXQuB4eXZbplsHThyVz6pAMnemQzNn/X2zCBq0iKp71X2Ta7AVSPG+Z8yvXdW5R30c/lwu9reYVjEZgFBZCo9ggNAIAAHCO1+1prgVHSsOj0lsfltIF33ayKuW6RgVJF/s/k6H+E04HEfrvqHjmIimavUCmld0q08qzZ8cDotEIi8am//4TX252YwaVEwiNYqNtn9zWlDQXdxEaAQCAOPE6NFIuBkcjXFnVP2kmTLrY1xUESSOB0sXB3oK3uZWULw9+12BoSvEsKSq/I/t7uVfh0NUIi26OwCgKhEZxkXztVVm5K4y2isIiNAIAAHHifWikdIDvuc7t5uYeDTDK7njS68DiRnRz28XM6eGzCZdGu5Q5K4NnOsxtbMVzr54AkH1t3jJzEimak/1zl1sDJ4mwaHwIjKJCaBQXe5u3y/oD5uIwQiMAABAnsQiNlA7z7T3yorm5SWfmzKzdICWVD8cy3EC4MqkW6e/cRVg0DjrQfM7ybf5W/RUUoVE8pKX52d3yvMsbp4x1GzfINrJjAAAQE1PN797TgbU6uNZlOlBag69T73wtaLvTzWXARGmA2vP2Kjn9+80ERuOggVHFV/6WwAjIRapTWjwIjAAAAOImNqGR0uCoYtnLQZuJyy4NnQnmNJ36P1+X3gPfDkIAYCwaMGqb5ql/WhEEj6zPHx+dK6aBEZV9AAAAAOIoVqGR0rlAOpfE9eBohFaKBNVH/7RC+j54LpgBBIzQeUValaYBo8710sAR46OB0cwlPyYwAsKQ6nF+1T4AAEAcxS40UjrIdt79vw3aTnyhYUBf1yvS/bs/lfS7a2Qg2RxsJ0MMZf+9679/bUFLH3rK2e2BhaStrEFgBCAUyS73t6YBAADEUWwGYV9X9uH67OFn5Pypt80L/pkx7wEp+cK9DM+OAR1sfeGz/YREOdAKxDlL/kcsNxUWDoOw/dcpm559U3Z6MdMoIVu2PiaNleYKAADguXiHRoa278ThQZsAyT/ajnj+k3+QgZPvMKcoR1p5WH73j1ipn3eERt5LtUvD5kOetKcRGgEAgHghNDJ8WMk/EQRI7tKh1hdSe6Xv+CsERSEpKV8u5cub+FwoCEIj77Xtk9uakubiOkIjAAAQL4RGo+jQ4NPtfxG7YcEaIBXPrZOSytWsFbfUSEXRhZ73ZbDvmHkVYSirekLK7nrO3JB/hEa+29u8XdYfMBfn1cqOHatktbkBAAD4jtDoKlrFcbp1U2wfzKdNv1Wmz79fiufdI8WVa8yrKASdUZQ59T6tZxHR+UXldz7Dx3nBERp5zavWNEVoBAAA4oXQ6Hoy3XLuw79ioHCWtu1oFdL0W7/KrJeIaTVR5tTB7IffYa+Hs9uA+UU2ITTymm+hUfUy2f/CEqk1VwAAAN8RGo1B15af+ajJ3KCVGcUzFwUhUvG8ZWyYypFWtWX+40AQEl1It1JNlCelt3xdZt75Q+YXWYPQyGd+taZl1T8onzbWmAsAAID/CI1uQqs/Tr//33mgvwGt2ChJ3CNF5f9Ziub8IZUbY9CZWUO9R4OQaCB9KHazswpNQ8/ZC5+WkupvmVdgB0Ijb3nXmpZFaAQAAGKG0Gg8Mt3S27pRLvS2mhcwFm1pK5q9IAiSppZVxbIiaSQgGuztkMyZYwyvLjDa0WxGaOQtr7amDat7fK3seaTC3AAAAPxHaDQBtKtNng7Ynjb9i0Fr29TiWTKtfJFMm1nt9ra2TLcMnj4chEMXM2eDCqKhgX+jKs0ywXa0RU/TjmYtQiMvtbVLQ5NnVUZZ6zZukG1kzwAAIEYIjSaIdrXwaRXI1KLyoDppigZKpbcGFUrBn82pK9jDvlYLqYt9XTLUf0IuZc7K4JkOuTjYS+WQA9iO5gpCIy95WGUkkpAtWx+TxkpzBQAAiAFCo8nIdMvZw8+w4SrPRsKlEUG4VHqLuU3cSAg0Gi2Ifpgx7wGZVfci1UVOIDTyjo+zjAKs2wcAAPFDaJSDTKpFej98kYHGgCW0umhW7ZMyvbbRvAL7ERr5Jtm2T1Z6V2WUxbp9AAAQQ1PN75gEbXuZe+/fB4OfARSWfh7q5yOBEVBAvgZGqqqCwAgAAMQOoVGOdJBzef0vZPYdG4MqBwD5FazSz37+6eeh04PVAdcFw689DYyy6qrYmgYAAOJn6nCb2WR+YTStbqDqCMgvnV1EdRFgg7Ts7Up6OMfoc4sJjQAAQAxRaRQiqo6A/NDPrzl3b5VZy39GdRFggWTb+7J+V4+5+SghC9maBgAAYojQKAIjVUdaBQEgXGVVT8i8+3/LKn3AEsnXXvV3jtFlCVlAaAQAAGJoyqVLF+k1i5BuWDt79CcyNHDCvAJgMorKFkr53T+SqXOWmlfgh3C3p+1t3i7rD5jLdSVk3eNL5XvLa6SWECBHaWlufkueP+BzhZFR/6B82lhjLgAAAPFBaJQPmW7pO/pT6et6xbwAYLyCQdcLn5aS6m+ZV+CXcEOjoOpl3G1SCamrr5VNa2pkdSXzaiYk1Sl7W9s8b0n7XN3ja2XPI3yMAACA+CE0yqOLp9vk7L/8L7nQ22peATAWbUUrW/S0SPFc8wr8U8jQ6Ep11bWy5tF75KGlrFYfU7Al7ZDXQ6+vlJAtWx+TRirTAABADBEaFcCF47+Uc8nttKwBN6BbCGcveY4h17FgT2h0heqErFtRKw3Ll8hqwoJhqbTsbXlL1sehHW206mWy/4UlBIkAACCWCI0KJdMt/cmfS98nv5JLQ2fMi0C86dyiWYv/XIrmrzKvwH/hhkbStk9ui2Aoc1CFtOJ2eSims5CSr+2T7+7ye6X+DTHPCAAAxBihUYFd6u+QvqPN0v/Z6+YVIH6mTb9VZtZuYG5RLLkRGl1NZyEFIVKlzyFSWva+9r5sO5iUw8fNSzG0buMG2cb8fQAAEFOERpZg3hHiiLAIoYdGqXZp2Jz/eTsjlUgLlle4P1TbtKFtO9ATz8qiK9TKjh2rZLW5AQAAxA2hkWUGT+6Tvo9+TngEr+lGtLIvfUNKa59kyHXs+REaXaM6IXVVGiRVyEOVFVJrfZCUlmRbp/z1rw/JzhhXFV2NrWkAACDuCI0slUm1yNmjP2FYNrxCWIRrhRwaSadsWv+m7DQ3qwRBUkLWVA1XJC3QMMn8UUFoRVEr7Wc3xtY0AAAAQiPLsWkNPrjchlb5MGERrhKj0OhGTJi0WBLSsKJCpLJCFohWJ5k/D0MqLcnsrze6PpZjB3tk5/GYbUCbDLamAQAAEBq5gvAILmJmEW6O0Ohm6qoTwe+Lq4Z/l6rbpaFq+Ki0YknbyzpSw3fp+lj2dOnvPXJEeqgimiQGYAMAABAaOYeZR3BBSflyKa15XIor15hXgBsJOzRKS/Ozu+V5ghLkgiojAACAwFTzOxxRNH+VlNf/QiqWvSwz5j1gXgXsUHrL12XuV/4u+BglMALgqnWPEhgBAAAoKo0cd6m/Q/qONsv5k+/IpaEz5lUgf7QFbUblnzDcGpMUdqWRyN7m7bL+gLkAE0WVEQAAwGVUGjluSukCmbnkxzLv/t/K7Ds2Bg/wQD5oC9qcu7dK4oF9Urro+wRGALxAlREAAMDnqDTykK7r7+/cxdwjhG6kqmhG9aNBYAnkLvxKo+Rrr8rKXWwHwyTUPyifNtaYCwAAAAiNPKata/0dv5D+E7+hdQ050VlFJbesZE4RIkBoBFskZMvWx6Sx0lwBAABAaBQXWn000PVbOX/qbfMKMDZtP5tR9cdSUvkwrWeIEKER7FD3+FrZ80iFuQEAAEARGsVNplsGPvmV9HftkcG+Y+ZFYFhR2UIprWqQksrVtJ8hT8IPjaRtn9zWlDQXYBwYfg0AAHBdhEYxdvF0m5z/5B9k4OQ7MjRwwryKuNGKoum33EtQhAIhNEKh1cqOHatktbkBAADgc4RGCBAgxceUabNlesUyKfmCBkW0nqHQIgiNUu3SsPmQHDZXYCzrNm6QbUvNBQAAAFcgNMI1CJD8o21nJYl7pOTW+6Vo/irzKmADQiMUDnOMAAAAxkZohDHpBrYLqb0y8Nl7rPB3iK7GL6lYLsVz66T4D+ppO4PFIgiNpFM2rX9TdpobcF2s1wcAALgpQiOMX6ZbMifflQuf7ZcL6VaqkCxCSAR3ERqhAOoflP2NNQy+BgAAuAlCI0yatrFlTh2UTPdhGUgfkktDZ8yfIGo6vLpo9gIpnnePFFXcRUgEhxEaIc/YlAYAADBuhEYIDSFSNEYCoqLy/yxFc/5Qps5hYit8EkVolJbmZ3fL88fNFRhBYAQAADAhhEaIjIZIg6f/JQiRMmeOyWDfMfMnuB4dVl1UeptMCwKiO2Ra2ZcIiBADhEbIE1rSAAAAJozQCHk1eHKfZE4dkqEzHbGsRtJgaGpReVA5NKV4lhTPWyZTi+cQDiHGogiNRPY2b5f1B8wFsceWNAAAgMkhNEJB6Fa2U//n6+bmPm0hGzESCE3N/ppWvmj4tTl1IsVzgzOA0QiNEKWErNv4Vdm2lMAIAABgMgiNUBDn2n8g/Z+9bm5uKl/8jJRUf8vcAEwOoREiUl0rO55aJasrzR0AAAATNtX8DuRPplvOn3zHXNx1LrndnADYZkFVwpwQR3U6v+gFAiMAAIBcERoh7wY++ZUXs4yGBk5IJtVibgCAgquulS0b18oeBl4DAACEgtAIedd3/BVzcl9/5y5zAmCTWiqNYiYh6x4fri5qZH4RAABAaJhphLzS7WnpQ0+Zmx/m/dHrMqV0gbkBsELb23JbU9Jc4LO6+mWyaU0drWgAgDyLZi4jYBtCI+SVDwOwr1ZW9YSU3fWcuQGwRiote1v/VfYcTMrO4z3mRfiCsAgAUFiERogHQiPkT6ZbTr51r7n4Y8q02TLvvx40NwDW0hApNRwiHTnQI4fNy3BJQurq75G/YWYRAKDgCI0QD4RGyJuBZLOc+ajJ3PzC+n3ARWlJtqXlja5OaTnYI4epRrJWXXWtrHl0CfOKAAAWITRCPBAaIW963l4VbBzz0Yx5D8is5T8zNwDOMtVIHQd7pKUrKYePm9eRf7oJ7dEl8tDSCqqKAAAWIjRCPBAaIS8unm6T7t/9qbn5af5X3xMpnmtuALyRSksy++uNg51yrKtHjhyntS0a2npWK2tW/CcqigAADiA0QjwQGiEv+j54Tvq6/Fm1fz2z79go02sbzQ2A7zRI6jBVSYRJk6EhUULWrKiRhyprpJaB1gAApxAaIR4IjZAXp/5phVwaOmNufioqWygV97WYG4DYMpVJHXJa9hzsEdFASXRmkvnzmKqrTsjiFbXSUPWfZAEtZwAA5xEaIR4IjRC5TKpFTv9+s7n5bd4fvS5TSheYGwBcSwMlHcLdkcr+1nVa9nTpAO4eOdKlf+p6uJSQumqRxVUJWbiiRhZUVgS/CIgAAP4hNEI8EBohcufafyD9n71ubn6jRQ1AeLRiafjUEQRN6vRwO5y5DVcxXSXUNrnhEOiyqoQsDg4aCs0Rjcg1FBKpoL0MABAzhEaIB0IjRC4OrWkjSsqXS3n9L8wNAAAAgJ8IjRAPU83vQCS0NS0ugZG60Nua/R/dbW4AAAAAALiL0AiRuvDZfnOKjwup35gTAAAAAADuIjRCpC6kW80pPjLdLN0GAAAAALiP0AiRuXi6TYYGTphbfJw/+Y45AQAAAADgLkIjRGbgxFvmFC86w0kDMwAAAAAAXEZohMgM/Pu75hQ/cQ3MAAAAAAD+IDRCNDLdMth3zFzih7lGAAAAAADXERohEpmT8a0yUsHqfQAAAAAAHEZohEhkTr1vTvE1eHKfOQEAAAAA4B5CI0TiQg+hUebUIXMCAAAAAMA9hEYIX8znGY1grhEAAAAAwGWERghd3OcZjcicO2pOAAAAAAC4h9AIoRvs/cic4u3S0Bm5eLrN3AAAAAAAcAuhEUJHW9bnBk//izkBAAAAAOAWQiOEjraszw32/l9zAgAAAADALYRGCNWl/o6gLQvDBs90mBMAAAAAAG4hNEKoBtMfmBPUhd5WcwIAAAAAwC2ERggVQ7CvxTBsAAAAAICLCI0QqiHasa4x1PeJOQEAAAAA4A5CI4TqYuasOWEE1VcAAAAAABcRGiFUzPC51sX+z8wJAAAAAAB3EBohPJluc8BoQ/0nzAkAAAAAAHcQGiE0g6cPmxNGGxr4N3MCAAAAAMAdhEYIzaVMrzlhtKEBKo0AAAAAAO4hNEJoGPgMAAAAAIA/CI2APBg8uc+cAAAAAABww5RLly5eMmcgJ/1HX5JMN3ONrmfWH/43mTpnqbkBAAAAcNsU8zvgN0IjAAAAAAAmhNAI8UB7GgAAAAAAAK5BaAQAAAAAAIBrEBoBAAAAAADgGoRGAAAAAAAAuAahEQAAAAAAAK5BaAQAAAAAAIBrsHIfAAAAAAAA16DSCAAAAAAAANcgNAIAAAAAAMA1CI0AAAAAAABwDUIjAAAAAAAAXIPQCAAAAAAAANcgNAIAAAAAAMA1CI0AAAAAAABwFZH/P+uEZnZLUXf3AAAAAElFTkSuQmCC;" vertex="1" parent="2">
          <mxGeometry x="10" y="10" width="128.08" height="50" as="geometry" />
        </mxCell>
        <mxCell id="Ld5f4X40Y6e1_s1Iz7q8-20" value="Editing records" style="whiteSpace=wrap;strokeWidth=2;fontSize=11;" vertex="1" parent="2">
          <mxGeometry x="24.5" y="259" width="132" height="20" as="geometry" />
        </mxCell>
        <mxCell id="Ld5f4X40Y6e1_s1Iz7q8-21" value="Export records" style="whiteSpace=wrap;strokeWidth=2;fontSize=11;" vertex="1" parent="2">
          <mxGeometry x="24.5" y="289" width="132" height="20" as="geometry" />
        </mxCell>
        <mxCell id="Ld5f4X40Y6e1_s1Iz7q8-22" value="&lt;b&gt;Software&lt;/b&gt;" style="text;strokeColor=none;align=center;fillColor=none;html=1;verticalAlign=middle;whiteSpace=wrap;rounded=0;" vertex="1" parent="2">
          <mxGeometry x="200" y="70" width="130" height="30" as="geometry" />
        </mxCell>
        <mxCell id="Ld5f4X40Y6e1_s1Iz7q8-23" value="GeoNetwork" style="whiteSpace=wrap;strokeWidth=2;fontSize=11;" vertex="1" parent="2">
          <mxGeometry x="204.5" y="120" width="132" height="20" as="geometry" />
        </mxCell>
        <mxCell id="Ld5f4X40Y6e1_s1Iz7q8-24" value="PostgreSQL/PostGIS" style="whiteSpace=wrap;strokeWidth=2;fontSize=11;" vertex="1" parent="2">
          <mxGeometry x="204.5" y="150" width="132" height="20" as="geometry" />
        </mxCell>
        <mxCell id="Ld5f4X40Y6e1_s1Iz7q8-25" value="ElasticSearch" style="whiteSpace=wrap;strokeWidth=2;fontSize=11;" vertex="1" parent="2">
          <mxGeometry x="204.5" y="180" width="132" height="20" as="geometry" />
        </mxCell>
        <mxCell id="Ld5f4X40Y6e1_s1Iz7q8-26" value="AngularJS" style="whiteSpace=wrap;strokeWidth=2;fontSize=11;" vertex="1" parent="2">
          <mxGeometry x="204.5" y="214" width="132" height="20" as="geometry" />
        </mxCell>
        <mxCell id="Ld5f4X40Y6e1_s1Iz7q8-27" value="Kibana" style="whiteSpace=wrap;strokeWidth=2;fontSize=11;" vertex="1" parent="2">
          <mxGeometry x="204.5" y="250" width="132" height="20" as="geometry" />
        </mxCell>
        <mxCell id="Ld5f4X40Y6e1_s1Iz7q8-28" value="GeoServer" style="whiteSpace=wrap;strokeWidth=2;fontSize=11;" vertex="1" parent="2">
          <mxGeometry x="204.5" y="280" width="132" height="20" as="geometry" />
        </mxCell>
        <mxCell id="Ld5f4X40Y6e1_s1Iz7q8-29" value="" style="whiteSpace=wrap;strokeWidth=2;fillColor=#dae8fc;strokeColor=#6c8ebf;" vertex="1" parent="2">
          <mxGeometry x="380" y="110" width="161" height="248" as="geometry" />
        </mxCell>
        <mxCell id="Ld5f4X40Y6e1_s1Iz7q8-30" value="&lt;b&gt;Hosting Environment&lt;br&gt;&lt;/b&gt;" style="text;strokeColor=none;align=center;fillColor=none;html=1;verticalAlign=middle;whiteSpace=wrap;rounded=0;" vertex="1" parent="2">
          <mxGeometry x="380" y="70" width="130" height="30" as="geometry" />
        </mxCell>
        <mxCell id="Ld5f4X40Y6e1_s1Iz7q8-31" value="AWS (ca-central)" style="whiteSpace=wrap;strokeWidth=2;fontSize=11;" vertex="1" parent="2">
          <mxGeometry x="395.5" y="130" width="132" height="20" as="geometry" />
        </mxCell>
        <mxCell id="Ld5f4X40Y6e1_s1Iz7q8-32" value="SES Email service" style="whiteSpace=wrap;strokeWidth=2;fontSize=11;" vertex="1" parent="2">
          <mxGeometry x="395.5" y="160" width="132" height="20" as="geometry" />
        </mxCell>
        <mxCell id="Ld5f4X40Y6e1_s1Iz7q8-37" value="Email Notifications" style="whiteSpace=wrap;strokeWidth=2;fontSize=11;" vertex="1" parent="2">
          <mxGeometry x="24.5" y="319" width="132" height="20" as="geometry" />
        </mxCell>
        <mxCell id="Ld5f4X40Y6e1_s1Iz7q8-39" value="Ubuntu 22.04.4 LTS" style="whiteSpace=wrap;strokeWidth=2;fontSize=11;" vertex="1" parent="2">
          <mxGeometry x="395.5" y="189" width="132" height="20" as="geometry" />
        </mxCell>
        <mxCell id="Ld5f4X40Y6e1_s1Iz7q8-41" value="&lt;b&gt;2024-09-18&lt;br&gt;&lt;/b&gt;" style="text;strokeColor=none;align=center;fillColor=none;html=1;verticalAlign=middle;whiteSpace=wrap;rounded=0;" vertex="1" parent="2">
          <mxGeometry x="600" y="410" width="130" height="30" as="geometry" />
        </mxCell>
        <mxCell id="Ld5f4X40Y6e1_s1Iz7q8-43" value="&lt;b&gt;API/Web Services&lt;br&gt;&lt;/b&gt;" style="text;strokeColor=none;align=center;fillColor=none;html=1;verticalAlign=middle;whiteSpace=wrap;rounded=0;" vertex="1" parent="2">
          <mxGeometry x="560" y="70" width="130" height="30" as="geometry" />
        </mxCell>
        <mxCell id="Ld5f4X40Y6e1_s1Iz7q8-44" value="" style="whiteSpace=wrap;strokeWidth=2;fillColor=#dae8fc;strokeColor=#6c8ebf;" vertex="1" parent="2">
          <mxGeometry x="560" y="110" width="161" height="248" as="geometry" />
        </mxCell>
        <mxCell id="Ld5f4X40Y6e1_s1Iz7q8-46" value="OGC CSW" style="whiteSpace=wrap;strokeWidth=2;fontSize=11;" vertex="1" parent="2">
          <mxGeometry x="570" y="160" width="132" height="20" as="geometry" />
        </mxCell>
        <mxCell id="Ld5f4X40Y6e1_s1Iz7q8-47" value="OGC WMS/WFS" style="whiteSpace=wrap;strokeWidth=2;fontSize=11;" vertex="1" parent="2">
          <mxGeometry x="570" y="189" width="132" height="20" as="geometry" />
        </mxCell>
        <mxCell id="Ld5f4X40Y6e1_s1Iz7q8-45" value="GeoNetwork OpenAPI" style="whiteSpace=wrap;strokeWidth=2;fontSize=11;" vertex="1" parent="2">
          <mxGeometry x="570" y="130" width="132" height="20" as="geometry" />
        </mxCell>
        <mxCell id="Ld5f4X40Y6e1_s1Iz7q8-50" value="sitemap" style="whiteSpace=wrap;strokeWidth=2;fontSize=11;" vertex="1" parent="2">
          <mxGeometry x="570" y="216" width="132" height="20" as="geometry" />
        </mxCell>
        <mxCell id="Ld5f4X40Y6e1_s1Iz7q8-51" value="machine-friendly JSON-LD" style="whiteSpace=wrap;strokeWidth=2;fontSize=10;" vertex="1" parent="2">
          <mxGeometry x="570" y="243" width="132" height="20" as="geometry" />
        </mxCell>
        <mxCell id="Ld5f4X40Y6e1_s1Iz7q8-52" value="Source stored in Git repo" style="whiteSpace=wrap;strokeWidth=2;fontSize=11;" vertex="1" parent="2">
          <mxGeometry x="394.5" y="216" width="132" height="20" as="geometry" />
        </mxCell>
        <mxCell id="Ld5f4X40Y6e1_s1Iz7q8-53" value="Daily backups" style="whiteSpace=wrap;strokeWidth=2;fontSize=11;" vertex="1" parent="2">
          <mxGeometry x="395.5" y="250" width="132" height="20" as="geometry" />
        </mxCell>
      </root>
    </mxGraphModel>
  </diagram>
</mxfile>
